<?xml version="1.0" encoding="utf-8"?>
<!-- Generator: Adobe Illustrator 21.0.0, SVG Export Plug-In . SVG Version: 6.00 Build 0)  -->
<svg version="1.1" id="Layer_1" xmlns="http://www.w3.org/2000/svg" xmlns:xlink="http://www.w3.org/1999/xlink" x="0px" y="0px"
	 viewBox="0 0 300 600" style="enable-background:new 0 0 300 600;" xml:space="preserve">
<style type="text/css">
	.st0{fill:#FFFFFF;}
	.st1{fill:#66C294;}
	.st2{fill:#0C4361;}
	.st3{fill:none;stroke:#010101;stroke-width:0.25;stroke-miterlimit:10;}
</style>
<g>
	<path class="st0" d="M159,367.5c0,2.5-2,4.5-4.5,4.5l0,0c-2.5,0-4.5-2-4.5-4.5v-48.6c0-2.5,2-4.5,4.5-4.5l0,0c2.5,0,4.5,2,4.5,4.5
		V367.5z"/>
	<g>
		<g>
			<path class="st0" d="M235.5,324.7h-4.7c-2.7,0-4.6,1-4.6,4.6v15.6c0,0.5,0.4,0.9,0.9,0.9h0.7c0.5,0,0.9-0.4,0.9-0.9V335h5.8
				c0.5,0,0.9-0.4,0.9-0.9v-0.4c0-0.5-0.4-0.9-0.9-0.9h-5.8v-3.3c0-1.8,0.6-2.5,2.2-2.5h4.5c0.5,0,0.9-0.4,0.9-0.9v-0.4
				C236.4,325.1,236,324.7,235.5,324.7z"/>
			<path class="st0" d="M238.6,332.7h-0.7c-0.5,0-0.9,0.4-0.9,0.9v11.2c0,0.5,0.4,0.9,0.9,0.9h0.7c0.5,0,0.9-0.4,0.9-0.9v-11.2
				C239.6,333.2,239.1,332.7,238.6,332.7z"/>
			<path class="st0" d="M238.3,328.2c-0.7,0-1.3,0.5-1.3,1.2v0.8c0,0.7,0.5,1.2,1.3,1.2s1.3-0.5,1.3-1.2v-0.8
				C239.6,328.6,239,328.2,238.3,328.2z"/>
			<path class="st0" d="M246.8,332.7h-1.5c-2.7,0-3.8,1.5-3.8,4.2v7.9c0,0.5,0.4,0.9,0.9,0.9h0.7c0.5,0,0.9-0.4,0.9-0.9V337
				c0-1.7,0.4-2.1,1.9-2.1h1c0.5,0,0.8-0.4,0.8-0.9v-0.3C247.7,333.2,247.3,332.7,246.8,332.7z"/>
			<path class="st0" d="M264.4,343.6h-0.8c-1.5,0-2.1-0.5-2.1-2.1v-6.6h2.4c0.5,0,0.9-0.4,0.9-0.9v-0.3c0-0.5-0.4-0.9-0.9-0.9h-2.4
				v-3.7c0-0.5-0.4-0.9-0.9-0.9h-0.7c-0.5,0-0.9,0.4-0.9,0.9v12.5c0,2.8,1.2,4.2,3.8,4.2h1.5c0.5,0,0.9-0.4,0.9-0.9v-0.3
				C265.2,344,264.8,343.6,264.4,343.6z"/>
			<path class="st0" d="M254.7,338.3l-2.4-0.7c-0.9-0.2-1.5-0.6-1.5-1.3c0-1,0.8-1.3,2.1-1.3h3.3c0.5,0,0.9-0.4,0.9-0.9v-0.3
				c0-0.5-0.4-0.9-0.9-0.9h-3.4c-3,0-4.4,1.5-4.4,3.6c0,1.9,0.9,2.8,2.8,3.3l2.8,0.8c1,0.3,1.3,0.8,1.3,1.6c0,0.7-0.4,1.6-2.5,1.6
				h-3.4c-0.5,0-0.9,0.4-0.9,0.9v0.3c0,0.5,0.4,0.9,0.9,0.9h3.5c3.5,0,4.8-1.3,4.8-3.9C257.7,340.1,257,338.9,254.7,338.3z"/>
		</g>
		<g>
			<path class="st0" d="M186.3,325.7h-0.7c-0.5,0-1,0.4-1.1,0.9l-2.7,17.4l-2.8-9.8c-0.4-1.3-1-1.7-2.1-1.7s-1.8,0.5-2.1,1.7
				L172,344l-2.7-17.4c-0.1-0.5-0.5-0.9-1.1-0.9h-0.7c-0.5,0-0.8,0.4-0.8,0.9l2.9,17.9c0.1,0.9,0.5,1.4,2.2,1.4
				c1.8,0,2.1-0.6,2.3-1.5l2.7-9.6l2.7,9.6c0.2,0.9,0.6,1.5,2.3,1.5s2.1-0.5,2.2-1.4l2.9-17.9C187.2,326.1,186.8,325.7,186.3,325.7z
				"/>
			<path class="st0" d="M193,346.1c3.2,0,5.6-2.1,5.6-5.2v-3.2c0-3.1-2.4-5.2-5.6-5.2c-3.2,0-5.7,2.1-5.7,5.2v3.2
				C187.3,344,189.8,346.1,193,346.1z M189.9,337.8c0-2.2,1.3-3.1,3.1-3.1s3.1,0.9,3.1,3.1v3c0,2.2-1.4,3.1-3.1,3.1
				c-1.8,0-3.1-0.9-3.1-3.1V337.8z"/>
			<path class="st0" d="M209.8,325.7h-0.7c-0.5,0-0.9,0.4-0.9,0.9V345c0,0.5,0.4,0.9,0.9,0.9h0.7c0.5,0,0.9-0.4,0.9-0.9v-18.4
				C210.7,326.1,210.3,325.7,209.8,325.7z"/>
			<path class="st0" d="M202.1,345.9c0.5,0,0.9-0.4,0.9-0.9v-7.9c0-1.7,0.4-2.1,1.9-2.1h1c0.5,0,0.8-0.4,0.8-0.9v-0.3
				c0-0.5-0.4-0.9-0.9-0.9h-1.5c-2.7,0-3.8,1.5-3.8,4.2v7.9c0,0.5,0.4,0.9,0.9,0.9L202.1,345.9L202.1,345.9z"/>
			<path class="st0" d="M222.5,325.7h-0.7c-0.5,0-0.9,0.4-0.9,0.9v6.7c-0.7-0.4-1.6-0.7-2.9-0.7c-2.7,0-5.4,1.7-5.4,5.5v2.4
				c0,3.4,2.3,5.6,5.7,5.6c2,0,2.8-0.3,4.2-0.9c0.5-0.2,0.8-0.7,0.8-1.3v-17.4C223.4,326.1,223,325.7,222.5,325.7z M220.8,343.5
				c-0.8,0.2-1.6,0.4-2.6,0.4c-1.8,0-3.1-0.9-3.1-3.1v-3c0-2.3,1.6-3,3.1-3s2.6,0.9,2.6,1.6V343.5z"/>
		</g>
	</g>
	<g>
		<path class="st0" d="M167.4,350.8c0.2,0,0.4,0,0.4,0.1l1.4,5.8l1.4-5.9c0-0.1,0.2-0.1,0.4-0.1h0.2c0.3,0,0.4,0,0.4,0.1l1.4,5.9
			l1.4-5.8c0-0.1,0.2-0.1,0.4-0.1h0.1c0.3,0,0.4,0,0.4,0.1l-1.7,6.7c0,0.1-0.2,0.1-0.4,0.1h-0.3c-0.3,0-0.4,0-0.4-0.1l-1.4-5.6
			l-1.3,5.6c0,0.1-0.2,0.1-0.4,0.1h-0.3c-0.3,0-0.4,0-0.4-0.1l-1.8-6.6c0-0.1,0.2-0.1,0.4-0.1h0.1L167.4,350.8L167.4,350.8z"/>
		<path class="st0" d="M176.5,355.5c0,0.5,0.2,0.9,0.5,1.2c0.3,0.2,0.6,0.3,1.1,0.3c0.4,0,0.8-0.1,1.3-0.3c0.1,0,0.1-0.1,0.2,0.2
			v0.1c0.1,0.2,0.1,0.3,0,0.4c-0.5,0.3-1.1,0.4-1.7,0.4c-1.5,0-2.3-1-2.3-2.5c0-1.6,0.9-2.7,2.3-2.7c0.8,0,1.4,0.4,1.7,1
			c0.2,0.4,0.3,1,0.3,1.5c0,0.3,0,0.3-0.1,0.3h-3.3V355.5z M179.1,354.8c0-0.7-0.4-1.4-1.2-1.4c-0.7,0-1.2,0.4-1.4,1.4H179.1z"/>
		<path class="st0" d="M181.6,350.8c0.3,0,0.4,0,0.4,0.1l-0.1,2.4c0,0.1-0.1,0.1-0.3,0.1h-0.1c-0.2,0-0.3,0-0.3-0.1L181,351
			c0-0.1,0.1-0.1,0.4-0.1h0.2L181.6,350.8L181.6,350.8z"/>
		<path class="st0" d="M183.8,352.7c0.3,0,0.4,0,0.4,0.1v1c0.4-0.8,0.9-1.2,1.4-1.2c0.1,0,0.2,0,0.2,0c0.1,0,0.1,0,0.1,0.3v0.1
			c0,0.3,0,0.4-0.1,0.4c-0.7,0-1,0.4-1.3,0.9c-0.1,0.2-0.2,0.5-0.2,0.8s0,0.9,0,1.4v1.1c0,0.1,0,0.1-0.4,0.1h-0.1
			c-0.4,0-0.4,0-0.4-0.1v-3.3c0-0.6,0-1.3,0-1.6C183.3,352.7,183.4,352.7,183.8,352.7L183.8,352.7z"/>
		<path class="st0" d="M187.2,355.5c0,0.5,0.2,0.9,0.5,1.2c0.3,0.2,0.6,0.3,1.1,0.3c0.4,0,0.8-0.1,1.3-0.3c0.1,0,0.1-0.1,0.2,0.2
			v0.1c0.1,0.2,0.1,0.3,0,0.4c-0.5,0.3-1.1,0.4-1.7,0.4c-1.5,0-2.3-1-2.3-2.5c0-1.6,0.9-2.7,2.3-2.7c0.8,0,1.4,0.4,1.7,1
			c0.2,0.4,0.3,1,0.3,1.5c0,0.3,0,0.3-0.1,0.3h-3.3V355.5z M189.8,354.8c0-0.7-0.4-1.4-1.2-1.4c-0.7,0-1.2,0.4-1.4,1.4H189.8z"/>
		<path class="st0" d="M197.7,357c0.1,0.2,0.1,0.3,0,0.3c-0.5,0.3-1,0.4-1.6,0.4c-1.5,0-2.2-1.1-2.2-2.5c0-1.7,1-2.7,2.3-2.7
			c0.6,0,1.1,0.2,1.5,0.5c0.1,0.1,0.1,0.1-0.1,0.4c-0.1,0.3-0.2,0.3-0.3,0.2c-0.4-0.2-0.7-0.4-1.1-0.4c-0.9,0-1.5,0.7-1.5,1.9
			c0,0.9,0.4,1.8,1.4,1.8c0.4,0,0.8-0.1,1.2-0.3c0.1,0,0.2,0,0.2,0.2L197.7,357z"/>
		<path class="st0" d="M199.3,350.5c0.4,0,0.4,0,0.4,0.1v2.6c0.3-0.4,1-0.6,1.5-0.6s1,0.2,1.3,0.5c0.3,0.4,0.5,0.8,0.5,1.6v2.9
			c0,0.1,0,0.1-0.4,0.1h-0.1c-0.4,0-0.4,0-0.4-0.1v-2.5c0-0.8,0-1.1-0.3-1.4c-0.2-0.2-0.5-0.3-0.9-0.3s-0.8,0.1-1,0.3
			c-0.1,0.1-0.2,0.3-0.3,0.7c0,0.3,0,0.8,0,1.3v1.9c0,0.1,0,0.1-0.4,0.1h-0.1c-0.4,0-0.4,0-0.4-0.1v-7
			C198.8,350.5,198.9,350.5,199.3,350.5L199.3,350.5z"/>
		<path class="st0" d="M208,352.7c0.4,0,0.4,0,0.4,0.1c0,0.2,0,0.8,0,1.4v1.3c0,0.9,0,1.5,0.1,2c0,0.1,0,0.1-0.3,0.1l0,0
			c-0.3,0-0.4,0-0.4-0.1l-0.1-0.4c-0.3,0.4-0.8,0.6-1.5,0.6c-1.4,0-2-1.2-2-2.5c0-1.6,0.9-2.7,2.2-2.7c0.6,0,1,0.3,1.3,0.6v-0.4
			C207.7,352.7,207.7,352.7,208,352.7L208,352.7z M207.5,354c-0.2-0.3-0.6-0.6-1.1-0.6c-0.9,0-1.4,0.7-1.4,1.9
			c0,0.9,0.3,1.8,1.3,1.8c0.3,0,0.7-0.1,1-0.4c0.2-0.2,0.2-0.5,0.2-1.3V354z"/>
		<path class="st0" d="M210.3,352.7c0.3,0,0.4,0,0.4,0.1v0.4l0,0c0.3-0.4,1-0.6,1.6-0.6c0.5,0,1,0.2,1.3,0.5
			c0.3,0.4,0.5,0.8,0.5,1.6v2.9c0,0.1,0,0.1-0.4,0.1h-0.1c-0.4,0-0.4,0-0.4-0.1v-2.5c0-0.8,0-1.1-0.3-1.4c-0.2-0.2-0.5-0.3-0.9-0.3
			s-0.8,0.1-1,0.3c-0.1,0.1-0.2,0.3-0.3,0.7c0,0.3,0,0.8,0,1.3v1.9c0,0.1,0,0.1-0.4,0.1h-0.1c-0.4,0-0.4,0-0.4-0.1v-3.3
			c0-0.6,0-1.3,0-1.6C209.8,352.7,209.9,352.7,210.3,352.7L210.3,352.7z"/>
		<path class="st0" d="M219,352.7c0.3,0,0.4,0,0.4,0.1c0,0.5,0.1,1.8,0.1,2.4v1.6c0,0.8,0,1.4-0.2,1.8c-0.3,0.9-1.1,1.4-2.1,1.4
			c-0.5,0-1.1-0.1-1.4-0.3c-0.1,0-0.1-0.1,0-0.3v-0.1c0.1-0.2,0.1-0.3,0.2-0.3s0.2,0,0.2,0.1c0.3,0.1,0.6,0.2,0.9,0.2
			c0.8,0,1.3-0.3,1.5-1.1c0-0.2,0.1-0.7,0.1-0.9c-0.3,0.4-0.9,0.5-1.4,0.5c-1.4,0-2-1.1-2-2.5c0-1.6,0.9-2.7,2.2-2.7
			c0.5,0,1,0.2,1.2,0.6l0,0v-0.4C218.5,352.7,218.6,352.7,219,352.7L219,352.7z M218.5,355c0-0.6,0-0.9-0.1-1.1
			c-0.2-0.3-0.5-0.5-1-0.5c-0.8,0-1.4,0.7-1.4,1.8c0,1.1,0.4,1.7,1.3,1.7c0.5,0,1-0.2,1.2-0.6V355z"/>
		<path class="st0" d="M221.2,350.5c0.3,0,0.6,0.3,0.6,0.6s-0.3,0.6-0.6,0.6s-0.6-0.3-0.6-0.6S220.9,350.5,221.2,350.5z
			 M221.3,352.7c0.4,0,0.4,0,0.4,0.1v4.8c0,0.1,0,0.1-0.4,0.1h-0.1c-0.4,0-0.4,0-0.4-0.1v-4.8C220.8,352.7,220.8,352.7,221.3,352.7
			L221.3,352.7z"/>
		<path class="st0" d="M223.5,352.7c0.3,0,0.4,0,0.4,0.1v0.4l0,0c0.3-0.4,1-0.6,1.6-0.6c0.5,0,1,0.2,1.3,0.5
			c0.3,0.4,0.5,0.8,0.5,1.6v2.9c0,0.1,0,0.1-0.4,0.1h-0.1c-0.4,0-0.4,0-0.4-0.1v-2.5c0-0.8,0-1.1-0.3-1.4c-0.2-0.2-0.5-0.3-0.9-0.3
			s-0.8,0.1-1,0.3c-0.1,0.1-0.2,0.3-0.3,0.7c0,0.3,0,0.8,0,1.3v1.9c0,0.1,0,0.1-0.4,0.1h-0.1c-0.4,0-0.4,0-0.4-0.1v-3.3
			c0-0.6,0-1.3,0-1.6C223.1,352.7,223.1,352.7,223.5,352.7L223.5,352.7z"/>
		<path class="st0" d="M232.2,352.7c0.3,0,0.4,0,0.4,0.1c0,0.5,0.1,1.8,0.1,2.4v1.6c0,0.8,0,1.4-0.2,1.8c-0.3,0.9-1.1,1.4-2.1,1.4
			c-0.5,0-1.1-0.1-1.4-0.3c-0.1,0-0.1-0.1,0-0.3v-0.1c0.1-0.2,0.1-0.3,0.2-0.3c0,0,0.2,0,0.2,0.1c0.3,0.1,0.6,0.2,0.9,0.2
			c0.8,0,1.3-0.3,1.5-1.1c0-0.2,0.1-0.7,0.1-0.9c-0.3,0.4-0.9,0.5-1.4,0.5c-1.4,0-2-1.1-2-2.5c0-1.6,0.9-2.7,2.2-2.7
			c0.5,0,1,0.2,1.2,0.6l0,0v-0.4C231.8,352.7,231.9,352.7,232.2,352.7L232.2,352.7z M231.8,355c0-0.6,0-0.9-0.1-1.1
			c-0.2-0.3-0.5-0.5-1-0.5c-0.8,0-1.4,0.7-1.4,1.8c0,1.1,0.4,1.7,1.3,1.7c0.5,0,1-0.2,1.2-0.6V355z"/>
		<path class="st0" d="M236.8,352.7c0.3,0,0.4,0,0.4,0.1v0.4l0,0c0.3-0.4,0.9-0.6,1.5-0.6c0.5,0,1,0.2,1.3,0.5
			c0.1,0.1,0.2,0.2,0.2,0.3c0.4-0.5,1-0.8,1.7-0.8c0.5,0,1,0.2,1.3,0.5c0.3,0.4,0.5,0.8,0.5,1.6v2.9c0,0.1,0,0.1-0.4,0.1h-0.1
			c-0.4,0-0.4,0-0.4-0.1v-2.5c0-0.8,0-1.1-0.3-1.4c-0.2-0.2-0.5-0.3-0.9-0.3c-0.3,0-0.7,0.1-1,0.3c-0.1,0.1-0.2,0.3-0.3,0.7
			c0,0.3,0,0.8,0,1.3v1.9c0,0.1,0,0.1-0.4,0.1h-0.1c-0.4,0-0.4,0-0.4-0.1v-2.5c0-0.8,0-1.1-0.3-1.4c-0.2-0.2-0.5-0.3-0.9-0.3
			c-0.3,0-0.7,0.1-1,0.3c-0.1,0.1-0.2,0.3-0.3,0.7c0,0.3,0,0.8,0,1.3v1.9c0,0.1,0,0.1-0.4,0.1h-0.1c-0.4,0-0.4,0-0.4-0.1v-3.3
			c0-0.6,0-1.3,0-1.6C236.4,352.7,236.4,352.7,236.8,352.7L236.8,352.7z"/>
		<path class="st0" d="M251,352.7c0.3,0,0.4,0,0.4,0.1v0.4l0,0c0.3-0.4,1-0.6,1.6-0.6c0.5,0,1,0.2,1.3,0.5c0.3,0.4,0.5,0.8,0.5,1.6
			v2.9c0,0.1,0,0.1-0.4,0.1h-0.1c-0.4,0-0.4,0-0.4-0.1v-2.5c0-0.8,0-1.1-0.3-1.4c-0.2-0.2-0.5-0.3-0.9-0.3s-0.8,0.1-1,0.3
			c-0.1,0.1-0.2,0.3-0.3,0.7c0,0.3,0,0.8,0,1.3v1.9c0,0.1,0,0.1-0.4,0.1l0,0c-0.4,0-0.4,0-0.4-0.1v-3.3c0-0.6,0-1.3,0-1.6
			C250.5,352.7,250.6,352.7,251,352.7L251,352.7z"/>
		<path class="st0" d="M256.7,355.5c0,0.5,0.2,0.9,0.5,1.2c0.3,0.2,0.6,0.3,1.1,0.3c0.4,0,0.8-0.1,1.3-0.3c0.1,0,0.1-0.1,0.2,0.2
			v0.1c0.1,0.2,0.1,0.3,0,0.4c-0.5,0.3-1.1,0.4-1.7,0.4c-1.5,0-2.3-1-2.3-2.5c0-1.6,0.9-2.7,2.3-2.7c0.8,0,1.4,0.4,1.7,1
			c0.2,0.4,0.3,1,0.3,1.5c0,0.3,0,0.3-0.1,0.3h-3.3V355.5z M259.3,354.8c0-0.7-0.4-1.4-1.2-1.4c-0.7,0-1.2,0.4-1.4,1.4H259.3z"/>
		<path class="st0" d="M262.5,355.2c0.3,0.7,0.4,1.1,0.5,1.6c0.1-0.4,0.3-1,0.5-1.6l0.8-2.4c0-0.1,0.1-0.1,0.4-0.1
			c0.4,0,0.5,0,0.4,0.1l-1.8,5c-0.2,0.7-0.5,1.2-0.8,1.5c-0.4,0.4-0.9,0.6-1.4,0.6c-0.2,0-0.6-0.1-0.8-0.2c-0.1-0.1-0.1-0.1,0-0.3
			v-0.1c0.1-0.2,0.1-0.3,0.2-0.2c0.2,0,0.3,0.1,0.5,0.1c0.6,0,1-0.3,1.4-1.4l-1.9-5c0-0.1,0.1-0.1,0.4-0.1s0.5,0,0.5,0.1
			L262.5,355.2z"/>
		<g>
			<path class="st0" d="M249.4,355.2c0,0.4-0.1,0.7-0.2,1c-0.1,0.3-0.2,0.6-0.4,0.8c-0.2,0.2-0.4,0.4-0.7,0.6
				c-0.3,0.1-0.6,0.2-1,0.2s-0.7-0.1-1-0.2s-0.5-0.3-0.7-0.6c-0.2-0.2-0.3-0.5-0.4-0.8c-0.1-0.3-0.2-0.6-0.2-1s0.1-0.7,0.2-1
				c0.1-0.3,0.2-0.6,0.4-0.8c0.2-0.2,0.4-0.4,0.7-0.6c0.3-0.1,0.6-0.2,1-0.2s0.7,0.1,1,0.2s0.5,0.3,0.7,0.6c0.2,0.2,0.3,0.5,0.4,0.8
				C249.3,354.5,249.4,354.8,249.4,355.2z M248.5,355.2c0-0.3,0-0.5-0.1-0.7s-0.1-0.4-0.3-0.6c-0.1-0.2-0.3-0.3-0.4-0.4
				c-0.2-0.1-0.4-0.1-0.6-0.1c-0.2,0-0.4,0-0.6,0.1c-0.2,0.1-0.3,0.2-0.4,0.4c-0.1,0.2-0.2,0.4-0.3,0.6s-0.1,0.5-0.1,0.7
				c0,0.3,0,0.5,0.1,0.7s0.1,0.4,0.3,0.6c0.1,0.2,0.3,0.3,0.4,0.4c0.2,0.1,0.4,0.1,0.6,0.1c0.2,0,0.4,0,0.6-0.1
				c0.2-0.1,0.3-0.2,0.4-0.4c0.1-0.2,0.2-0.4,0.3-0.6S248.5,355.5,248.5,355.2z"/>
		</g>
	</g>
</g>
<rect x="35" y="287" class="st1" width="90" height="90"/>
<g>
	<path class="st2" d="M46.2,300h8.5v2.2h-5.9v2.6h5.8v2.2h-5.8v5h-2.6V300z"/>
	<path class="st2" d="M56.6,300h2.6v12h-2.6V300z"/>
	<path class="st2" d="M64.3,303.9v8.1h-2.6v-12h2.6l5.6,7.8V300h2.6v12H70L64.3,303.9z"/>
	<path class="st2" d="M75.1,300h4.7c3.8,0,6.4,2.4,6.4,6s-2.6,6-6.4,6h-4.7V300z M79.8,309.8c2.4,0,3.8-1.7,3.8-3.7
		c0-2.1-1.3-3.8-3.8-3.8h-2.2v7.5H79.8z"/>
	<path class="st2" d="M51.9,317.8c3.6,0,6.3,2.6,6.3,6.2s-2.6,6.2-6.3,6.2c-3.6,0-6.3-2.6-6.3-6.2S48.3,317.8,51.9,317.8z
		 M51.9,320.1c-2.2,0-3.6,1.7-3.6,3.9c0,2.2,1.4,3.9,3.6,3.9c2.2,0,3.7-1.7,3.7-3.9C55.5,321.8,54.1,320.1,51.9,320.1z"/>
	<path class="st2" d="M60.1,318h2.6v7.1c0,1.7,0.9,2.8,2.8,2.8c1.8,0,2.8-1.2,2.8-2.8V318h2.6v7.2c0,3-1.7,5-5.3,5
		c-3.7,0-5.4-2.1-5.4-5L60.1,318L60.1,318z"/>
	<path class="st2" d="M76.2,320.2h-3.5V318h9.6v2.3h-3.5v9.8h-2.6V320.2z"/>
	<path class="st2" d="M54.4,343h-5.7v5h-2.6v-12h2.6v4.7h5.7V336H57v12h-2.6V343z"/>
	<path class="st2" d="M65.2,335.8c3.6,0,6.3,2.6,6.3,6.2s-2.6,6.2-6.3,6.2c-3.6,0-6.3-2.6-6.3-6.2S61.6,335.8,65.2,335.8z
		 M65.2,338.1c-2.2,0-3.6,1.7-3.6,3.9c0,2.2,1.4,3.9,3.6,3.9s3.7-1.7,3.7-3.9C68.9,339.8,67.4,338.1,65.2,338.1z"/>
	<path class="st2" d="M80.2,339.8l-2.1,8.2h-2.7L72,336h2.9l2.1,8.7l2.3-8.7h2l2.3,8.7l2.1-8.7h2.9L85,348h-2.7L80.2,339.8z"/>
</g>
<polygon class="st2" points="105,353 105,369 117,361 "/>
<line class="st3" x1="300" y1="425" x2="300" y2="433"/>
<g>
	<g>
		<path class="st0" d="M35,223.4v-15.6h11.1v2.9h-7.7v3.4h7.7v2.9h-7.7v6.5C38.5,223.4,35,223.4,35,223.4z"/>
		<path class="st0" d="M47.5,215.5c0-4.8,3.4-8.2,8.2-8.2s8.2,3.4,8.2,8.2s-3.4,8.2-8.2,8.2C51.2,223.6,47.5,220.3,47.5,215.5z
			 M60.5,215.5c0-2.9-1.9-5.3-4.8-5.3c-2.9,0-4.8,2.2-4.8,5.3c0,3.1,1.9,5.3,4.8,5.3C58.5,220.8,60.5,218.6,60.5,215.5z"/>
		<path class="st0" d="M75.1,223.4l-3.1-5.5h-2.4v5.5h-3.4v-15.6h7.4c3.1,0,5.3,2.2,5.3,5c0,2.6-1.7,4.1-3.4,4.8l3.6,6L75.1,223.4
			L75.1,223.4z M75.4,212.8c0-1.2-1-2.2-2.4-2.2h-3.6v4.1h3.6C74.4,214.7,75.4,214,75.4,212.8z"/>
		<path class="st0" d="M81.4,223.4v-15.6h11v2.9h-7.7v3.4h7.7v2.9h-7.7v3.6h7.7v2.9C92.4,223.4,81.4,223.4,81.4,223.4z"/>
		<path class="st0" d="M95.1,223.4v-15.6h3.3v15.6C98.4,223.4,95.1,223.4,95.1,223.4z"/>
		<path class="st0" d="M100.9,215.5c0-5,3.6-8.2,8.4-8.2c3.1,0,5.3,1.7,6.5,3.6l-2.6,1.4c-0.7-1-2.2-2.2-3.6-2.2
			c-2.9,0-4.8,2.2-4.8,5.3c0,3.1,2.2,5.3,4.8,5.3c1.4,0,2.6-0.5,3.4-1.2v-1.9h-4.1v-2.9h7.4v6c-2.2,1.7-4.3,2.9-7.2,2.9
			C104.4,223.6,100.9,220.5,100.9,215.5z"/>
		<path class="st0" d="M129.2,223.4l-7.4-10.1v10.1h-3.4v-15.6h3.4l7.2,9.8v-9.8h3.4v15.6C132.3,223.4,129.2,223.4,129.2,223.4z"/>
	</g>
	<g>
		<path class="st0" d="M141.9,223.4v-15.6h11.1v2.9h-7.7v3.4h7.7v2.9h-7.7v3.6h7.7v2.9C153.1,223.4,141.9,223.4,141.9,223.4z"/>
		<path class="st0" d="M165.9,223.4l-4.1-5.8l-3.8,5.8h-4.1l5.8-7.9l-5.3-7.7h4.1l3.6,5.3l3.6-5.3h4.1l-5.5,7.7l5.8,7.9H165.9z"/>
		<path class="st0" d="M169.8,215.7c0-4.8,3.6-8.2,8.4-8.2c3.4,0,5.5,1.9,6.5,3.8l-2.9,1.4c-0.7-1.2-2.2-2.2-3.6-2.2
			c-2.9,0-4.8,2.2-4.8,5.3c0,3.1,2.2,5.3,4.8,5.3c1.7,0,3.1-1,3.6-2.2l2.9,1.4c-1.2,1.4-3.1,3.1-6.5,3.1
			C173.4,223.6,169.8,220.5,169.8,215.7z"/>
		<path class="st0" d="M197.4,223.4v-6.5h-7.4v6.5h-3.4v-15.6h3.4v6.2h7.4v-6.2h3.4v15.6C200.8,223.4,197.4,223.4,197.4,223.4z"/>
		<path class="st0" d="M214.8,223.4l-1-2.6h-6.7l-1,2.6h-3.6l6-15.6h4.1l6,15.6C218.6,223.4,214.8,223.4,214.8,223.4z M210.4,211.1
			l-2.4,6.7h4.8L210.4,211.1z"/>
		<path class="st0" d="M230.6,223.4l-7.4-10.1v10.1h-3.4v-15.6h3.4l7.2,9.8v-9.8h3.6v15.6L230.6,223.4L230.6,223.4z"/>
		<path class="st0" d="M236.3,215.7c0-5,3.6-8.2,8.4-8.2c3.1,0,5.3,1.7,6.5,3.6l-2.6,1.4c-0.7-1-2.2-2.2-3.6-2.2
			c-2.9,0-4.8,2.2-4.8,5.3c0,3.1,2.2,5.3,4.8,5.3c1.4,0,2.6-0.5,3.4-1.2v-1.9h-4.1v-2.9h7.4v6c-1.7,1.7-3.8,2.9-6.7,2.9
			C239.9,223.6,236.3,220.5,236.3,215.7z"/>
		<path class="st0" d="M253.8,223.4v-15.6H265v2.9h-7.7v3.4h7.7v2.9h-7.7v3.6h7.7v2.9C265,223.4,253.8,223.4,253.8,223.4z"/>
	</g>
	<g>
		<path class="st0" d="M35,249.7l1.7-2.6c1,1.2,2.9,2.2,5,2.2c1.9,0,2.6-1,2.6-1.7c0-2.6-8.9-1-8.9-6.7c0-2.6,2.2-4.8,6-4.8
			c2.4,0,4.6,0.7,6,2.2l-1.9,2.4c-1.2-1.2-2.9-1.7-4.6-1.7c-1.4,0-2.2,0.5-2.2,1.7c0,2.4,8.9,0.7,8.9,6.7c0,2.9-2.2,5-6.2,5
			C38.7,252.1,36.5,251.1,35,249.7z"/>
		<path class="st0" d="M49.8,243.9c0-4.8,3.4-8.2,8.2-8.2s8.2,3.4,8.2,8.2c0,4.8-3.4,8.2-8.2,8.2S49.8,248.7,49.8,243.9z
			 M62.5,243.9c0-2.9-1.9-5.3-4.8-5.3c-2.9,0-4.8,2.2-4.8,5.3s1.9,5.3,4.8,5.3S62.5,246.8,62.5,243.9z"/>
		<path class="st0" d="M68.2,251.9v-15.7h3.4v12.7h6.7v2.9L68.2,251.9L68.2,251.9z"/>
		<path class="st0" d="M79.9,245.6v-9.4h3.4v9.4c0,2.2,1.2,3.6,3.6,3.6c2.4,0,3.6-1.4,3.6-3.6v-9.4h3.4v9.4c0,3.8-2.4,6.5-7,6.5
			C82.1,252.1,79.9,249.5,79.9,245.6z"/>
		<path class="st0" d="M100.6,251.9v-12.8h-4.6v-2.9h12.5v2.9h-4.6v12.7L100.6,251.9L100.6,251.9z"/>
		<path class="st0" d="M110.8,251.9v-15.7h3.4v15.6L110.8,251.9L110.8,251.9z"/>
		<path class="st0" d="M116.4,243.9c0-4.8,3.4-8.2,8.2-8.2c4.8,0,8.2,3.4,8.2,8.2c0,4.8-3.4,8.2-8.2,8.2
			C120.1,252.1,116.4,248.7,116.4,243.9z M129.4,243.9c0-2.9-1.9-5.3-4.8-5.3s-4.8,2.2-4.8,5.3s1.9,5.3,4.8,5.3
			C127.6,249.2,129.4,246.8,129.4,243.9z"/>
		<path class="st0" d="M146.1,251.9l-7.4-10.1v10.1h-3.4v-15.7h3.4l7.2,9.8v-9.8h3.4v15.6L146.1,251.9L146.1,251.9z"/>
		<path class="st0" d="M151.3,249.7l1.7-2.6c1,1.2,2.9,2.2,5,2.2c1.9,0,2.6-1,2.6-1.7c0-2.6-8.9-1-8.9-6.7c0-2.6,2.2-4.8,6-4.8
			c2.4,0,4.6,0.7,6,2.2l-1.9,2.4c-1.2-1.2-2.9-1.7-4.6-1.7c-1.4,0-2.2,0.5-2.2,1.7c0,2.4,8.9,0.7,8.9,6.7c0,2.9-2.2,5-6.2,5
			C154.9,252.1,152.8,251.1,151.3,249.7z"/>
	</g>
</g>
</svg>
