<?xml version="1.0" encoding="utf-8"?>
<!-- Generator: Adobe Illustrator 21.0.0, SVG Export Plug-In . SVG Version: 6.00 Build 0)  -->
<svg version="1.1" id="Layer_1" xmlns="http://www.w3.org/2000/svg" xmlns:xlink="http://www.w3.org/1999/xlink" x="0px" y="0px"
	 viewBox="0 0 300 600" style="enable-background:new 0 0 300 600;" xml:space="preserve">
<style type="text/css">
	.st0{fill:#FFFFFF;}
</style>
<g>
	<g>
		<path class="st0" d="M75.4,263.6l2.7-3.7c1.7,1.7,4.1,3.2,7.3,3.2c2.7,0,4.1-1.4,4.1-2.4c0-4.1-13.3-1.4-13.3-10
			c0-3.7,3.2-7.1,8.9-7.1c3.5,0,6.8,1,8.9,3.2l-2.7,3.5c-1.9-1.7-4.4-2.4-6.8-2.4c-2.2,0-3.2,1-3.2,2.4c0,3.5,13.3,1.4,13.3,9.8
			c0,4.4-3,7.3-9.1,7.3C80.8,267.4,77.5,265.7,75.4,263.6z"/>
		<path class="st0" d="M97.8,267v-23.2h16.5v4.4h-11.6v4.9h11.1v4.4h-11.1v5.1h11.6v4.4H97.8L97.8,267z"/>
		<path class="st0" d="M134.1,267L123,251.8V267h-4.9v-23.2h5.1l10.8,14.7v-14.7h4.6v23.3h-4.6V267z"/>
		<path class="st0" d="M143.2,267v-23.2h9.1c7.3,0,12.5,4.6,12.5,11.6s-5.1,11.6-12.5,11.6H143.2L143.2,267z M159.8,255.2
			c0-4.1-2.4-7.3-7.3-7.3h-4.4v14.7h4.4C157.1,262.5,159.8,259.2,159.8,255.2z"/>
		<path class="st0" d="M168.2,267v-23.2h4.9v23.3h-4.9V267z"/>
		<path class="st0" d="M194,267l-11.1-15.2V267H178v-23.2h5.1l10.8,14.7v-14.7h4.9v23.3H194V267z"/>
		<path class="st0" d="M202.1,255.2c0-7.3,5.4-12,12.5-12c4.9,0,7.9,2.4,9.8,5.1l-4.1,2.2c-1-1.7-3-3-5.4-3c-4.4,0-7.3,3.2-7.3,7.6
			c0,4.4,3,7.6,7.3,7.6c2.2,0,4.1-1,4.9-1.7v-3h-6.2V254h11.1v8.9c-2.4,2.7-5.7,4.4-9.8,4.4C207.7,267.4,202.1,262.8,202.1,255.2z"
			/>
	</g>
	<g>
		<path class="st0" d="M109.1,310.5v-16.2l-6.8,16.2h-2.2l-6.4-16.2v16.2h-4.9v-23.3h7.1l5.7,14l5.7-14h7.1v23.3H109.1z"/>
		<path class="st0" d="M117.6,298.6c0-7.1,5.1-12,12.2-12c7.1,0,12.2,5.1,12.2,12s-5.1,12-12.2,12
			C122.5,310.9,117.6,306,117.6,298.6z M136.5,298.6c0-4.4-3-7.6-7.1-7.6c-4.1,0-7.1,3.2-7.1,7.6s2.7,7.6,7.1,7.6
			C133.8,306.2,136.5,303.3,136.5,298.6z"/>
		<path class="st0" d="M161.1,310.5l-11.1-15.1v15.2h-4.9v-23.3h5.1l10.8,14.7v-14.7h4.9v23.3h-4.9V310.5z"/>
		<path class="st0" d="M170.7,310.5v-23.3h16.5v4.4h-11.6v4.9h11.1v4.4h-11.1v5.1h11.6v4.4L170.7,310.5L170.7,310.5z"/>
		<path class="st0" d="M197.2,310.5V301l-8.9-13.8h5.7l5.9,9.1l5.7-9.1h5.7l-8.9,13.8v9.5H197.2z"/>
	</g>
	<g>
		<path class="st0" d="M54.3,344.6c0-7.1,5.1-12,12.2-12s12.2,5.1,12.2,12c0,6.8-5.1,12-12.2,12C59.1,356.8,54.3,351.9,54.3,344.6z
			 M73.2,344.6c0-4.4-3-7.6-7.1-7.6s-7.1,3.2-7.1,7.6c0,4.4,2.7,7.6,7.1,7.6S73.2,349.2,73.2,344.6z"/>
		<path class="st0" d="M87.5,356.5l-8.9-23.3h5.7l6.4,17.9l6.2-17.9h5.7l-8.9,23.3H87.5L87.5,356.5z"/>
		<path class="st0" d="M104.9,356.5v-23.3h16.5v4.4h-11.6v4.9h11.1v4.4h-11.1v5.1h11.6v4.4L104.9,356.5L104.9,356.5z"/>
		<path class="st0" d="M138.2,356.5l-4.6-8.1h-3.5v8.1h-4.9v-23.3H136c4.9,0,7.9,3.2,7.9,7.3c0,4.1-2.4,6.2-5.1,7.1l5.1,8.9
			L138.2,356.5L138.2,356.5z M138.7,340.6c0-1.9-1.4-3.2-3.5-3.2h-5.1v6.2h5.1C137.3,343.8,138.7,342.5,138.7,340.6z"/>
		<path class="st0" d="M146.1,353.1l2.7-3.7c1.7,1.7,4.1,3.2,7.3,3.2c2.7,0,4.1-1.4,4.1-2.4c0-4.1-13.3-1.4-13.3-10
			c0-3.7,3.2-7.1,8.9-7.1c3.5,0,6.8,1,8.9,3.2l-2.7,3.5c-1.9-1.7-4.4-2.4-6.8-2.4c-2.2,0-3.2,1-3.2,2.4c0,3.5,13.3,1.4,13.3,9.8
			c0,4.4-3,7.3-9.1,7.3C151.5,356.8,148.1,355.1,146.1,353.1z"/>
		<path class="st0" d="M168.5,356.5v-23.3h16.5v4.4h-11.6v4.9h11.1v4.4h-11.1v5.1h11.6v4.4L168.5,356.5L168.5,356.5z"/>
		<path class="st0" d="M204.5,356.5l-1.4-4.1h-10l-1.4,4.1H186l8.9-23.3h6.2l8.9,23.3H204.5z M198.2,338.1l-3.5,10h7.3L198.2,338.1z
			"/>
		<path class="st0" d="M210.7,353.1l2.7-3.7c1.7,1.7,4.1,3.2,7.3,3.2c2.7,0,4.1-1.4,4.1-2.4c0-4.1-13.3-1.4-13.3-10
			c0-3.7,3.2-7.1,8.9-7.1c3.5,0,6.8,1,8.9,3.2l-2.7,3.5c-1.9-1.7-4.4-2.4-6.8-2.4c-2.2,0-3.2,1-3.2,2.4c0,3.5,13.3,1.4,13.3,9.8
			c0,4.4-3,7.3-9.1,7.3C215.8,356.8,212.9,355.1,210.7,353.1z"/>
		<path class="st0" d="M235.7,346.2c0-4.1,5.1-4.6,5.1-7.1c0-1-0.8-2.2-2.7-2.2c-1.7,0-3.2,0.8-4.4,2.2l-3-3.2
			c1.9-2.2,4.6-3.2,7.6-3.2c4.4,0,7.3,2.2,7.3,5.4c0,5.1-5.9,5.4-5.9,8.4c0,0.5,0.3,1,0.5,1.4l-3.7,1
			C236.2,348.4,235.7,347.3,235.7,346.2z M235.7,353.8c0-1.7,1.4-3,3-3c1.7,0,3,1.4,3,3s-1.4,3-3,3
			C237,356.8,235.7,355.4,235.7,353.8z"/>
	</g>
</g>
</svg>
