<?xml version="1.0" encoding="utf-8"?>
<!-- Generator: Adobe Illustrator 21.1.0, SVG Export Plug-In . SVG Version: 6.00 Build 0)  -->
<svg version="1.1" id="Layer_1" xmlns="http://www.w3.org/2000/svg" xmlns:xlink="http://www.w3.org/1999/xlink" x="0px" y="0px"
	 viewBox="0 0 300 770.4" style="enable-background:new 0 0 300 770.4;" xml:space="preserve">
<style type="text/css">
	.st0{fill:#66C294;}
</style>
<g>
	<polygon class="st0" points="287.3,98.8 273.5,85 273.5,112.6 	"/>
	<polygon class="st0" points="66.6,98.8 80.4,85 52.8,85 52.8,112.6 80.4,112.6 	"/>
	<polygon class="st0" points="66.6,126.4 52.8,112.6 52.8,140.2 	"/>
	<polygon class="st0" points="94.2,98.8 108,112.6 108,85 80.4,85 80.4,112.6 	"/>
	<polygon class="st0" points="121.8,43.6 108,57.4 135.6,57.4 	"/>
	<polygon class="st0" points="108,85 121.8,71.2 108,57.4 80.4,57.4 94.2,71.2 	"/>
	<polygon class="st0" points="39,98.8 25.2,112.6 52.8,112.6 	"/>
	<polygon class="st0" points="11.5,126.4 25.2,140.2 25.2,112.6 	"/>
	<polygon class="st0" points="66.6,71.2 80.4,85 80.4,57.4 	"/>
	<polygon class="st0" points="94.2,43.6 108,57.4 108,29.8 	"/>
	<polygon class="st0" points="163.2,2.2 135.6,2.2 149.4,16 	"/>
	
		<rect x="250" y="75.2" transform="matrix(0.7071 -0.7071 0.7071 0.7071 15.9623 208.5412)" class="st0" width="19.5" height="19.5"/>
	<polygon class="st0" points="299.8,112.6 299.8,112.6 299.8,110.3 296.5,112.6 272.5,112.6 258.7,98.8 244.9,112.6 258.7,126.4 
		244.9,140.2 244.9,112.6 244.9,85 231.1,71.2 217.3,57.4 217.3,85 231.1,98.8 217.3,112.6 231.1,126.4 217.3,140.2 217.3,112.6 
		217.3,85 203.5,71.2 189.8,85 203.5,98.8 189.8,112.6 189.8,85 162.2,85 176,98.8 162.2,112.6 162.2,85 148.4,71.2 134.6,85 
		148.4,98.8 134.6,112.6 148.4,126.4 134.6,140.2 134.6,112.6 120.8,126.4 107,112.6 79.4,112.6 65.6,126.4 79.4,140.2 51.8,140.2 
		51.8,167.8 38,154 51.8,140.2 38,126.4 24.2,140.2 -1,140.2 -1,142.5 -1,770.4 299.8,770.4 299.8,113.9 	"/>
	<polygon class="st0" points="232.1,43.6 218.3,57.4 245.9,57.4 	"/>
	
		<rect x="194.8" y="47.7" transform="matrix(0.7071 -0.7071 0.7071 0.7071 19.3088 161.452)" class="st0" width="19.5" height="19.5"/>
	<polygon class="st0" points="190.8,57.4 177,71.2 190.8,85 	"/>
	<polygon class="st0" points="177,71.2 163.2,57.4 163.2,85 	"/>
	<polygon class="st0" points="190.8,29.8 204.5,43.6 218.3,29.8 	"/>
	<polygon class="st0" points="121.8,98.8 108,112.6 135.6,112.6 135.6,85 108,85 	"/>
	<polygon class="st0" points="149.4,43.6 135.6,57.4 163.2,57.4 	"/>
	<polygon class="st0" points="163.2,29.8 190.8,29.8 177,16 	"/>
	<polygon class="st0" points="190.8,2.2 190.8,29.8 204.5,16 	"/>
</g>
</svg>
