<?xml version="1.0" encoding="utf-8"?>
<!-- Generator: Adobe Illustrator 21.0.0, SVG Export Plug-In . SVG Version: 6.00 Build 0)  -->
<svg version="1.1" id="Layer_1" xmlns="http://www.w3.org/2000/svg" xmlns:xlink="http://www.w3.org/1999/xlink" x="0px" y="0px"
	 viewBox="0 0 300 600" style="enable-background:new 0 0 300 600;" xml:space="preserve">
<style type="text/css">
	.st0{fill:#FFFFFF;}
</style>
<g>
	<g>
		<path class="st0" d="M76.2,205.1c0-6.6,5-10.9,11.1-10.9c4.5,0,7.2,2.2,8.7,4.7l-3.7,2c-1-1.4-2.7-2.7-5-2.7
			c-3.8,0-6.6,2.8-6.6,6.9c0,4,2.7,6.9,6.6,6.9c1.9,0,3.6-0.9,4.5-1.5v-2.4h-5.6v-3.8h10v8c-2.2,2.4-5.1,4-8.9,4
			C81.1,216.3,76.2,211.9,76.2,205.1z"/>
		<path class="st0" d="M98.8,208.1c0-4.5,3.3-8,7.9-8c4.6,0,7.5,3.4,7.5,8.4v0.9h-11.4c0.3,1.9,1.9,3.6,4.5,3.6c1.3,0,3.2-0.5,4-1.5
			l1.7,2.6c-1.5,1.4-3.8,2.2-6.3,2.2C102.3,216.1,98.8,213.1,98.8,208.1z M106.6,203.4c-2.4,0-3.6,1.9-3.7,3.4h7.4
			C110.1,205.1,109.2,203.4,106.6,203.4z"/>
		<path class="st0" d="M118.1,211.9V204h-2.6v-3.4h2.6v-4.1h4v4.2h3.2v3.4H122v6.9c0,1,0.5,1.7,1.4,1.7c0.5,0,1.1-0.3,1.4-0.4
			l0.9,3.1c-0.5,0.5-1.7,1-3.3,1C119.5,216.1,118.1,214.6,118.1,211.9z"/>
		<path class="st0" d="M150.4,215.6l-1.3-3.6H140l-1.3,3.6h-5.1l8.2-21.1h5.6l8.2,21.1H150.4z M144.8,199.1l-3.3,9.1h6.4
			L144.8,199.1z"/>
		<path class="st0" d="M170.4,215.6l-3.2-10.3l-3.2,10.3h-4.3l-4.6-15.2h4.2l2.8,10.3l3.3-10.3h3.4l3.3,10.3l2.8-10.3h4.2l-4.6,15.2
			H170.4z"/>
		<path class="st0" d="M190.4,215.6v-1.5c-1,1.3-2.8,2-4.9,2c-2.4,0-5.2-1.5-5.2-5c0-3.6,2.8-4.9,5.2-4.9c2,0,3.8,0.8,4.9,1.9v-2
			c0-1.5-1.3-2.6-3.3-2.6c-1.5,0-3.2,0.5-4.5,1.9l-1.5-2.7c1.9-1.5,4.3-2.4,6.6-2.4c3.4,0,6.6,1.4,6.6,5.7v9.8L190.4,215.6
			L190.4,215.6z M190.4,211.9V210c-0.8-0.9-1.9-1.3-3.2-1.3c-1.5,0-2.8,0.9-2.8,2.3s1.3,2.3,2.8,2.3
			C188.3,213.3,189.7,212.8,190.4,211.9z"/>
		<path class="st0" d="M198.3,215.6v-15.2h4v2.2c1-1.3,3.1-2.4,4.9-2.4v3.8c-0.3,0-0.8-0.1-1.1-0.1c-1.3,0-3.2,0.8-3.7,1.7v10
			L198.3,215.6L198.3,215.6z"/>
		<path class="st0" d="M219.9,215.6v-2c-1.1,1.5-2.8,2.3-4.7,2.3c-3.8,0-6.8-2.8-6.8-8c0-5,2.8-8,6.8-8c1.9,0,3.4,0.9,4.7,2.3v-7.8
			h4v21.1L219.9,215.6L219.9,215.6z M219.9,210.8v-5.4c-0.8-1-2.2-1.7-3.4-1.7c-2.3,0-3.8,1.9-3.8,4.5c0,2.6,1.5,4.5,3.8,4.5
			C218.2,212.6,219.6,211.8,219.9,210.8z"/>
	</g>
	<g>
		<path class="st0" d="M110,253.4l-3.7-14.4l-3.7,14.4H98l-6-21h5l3.7,15.2l4-15.2h3.3l4,15.2l3.7-15.2h5l-6,21.1h-4.7
			C110,253.6,110,253.4,110,253.4z"/>
		<path class="st0" d="M122.4,234.1c0-1.3,1.1-2.3,2.4-2.3c1.3,0,2.4,1,2.4,2.3c0,1.3-1,2.4-2.4,2.4
			C123.4,236.6,122.4,235.5,122.4,234.1z M122.8,253.4v-15.2h4v15.2H122.8z"/>
		<path class="st0" d="M141.1,253.4v-9.2c0-2.2-1.1-2.8-2.8-2.8c-1.5,0-2.8,0.9-3.4,1.9v10.3h-4v-15.2h4v2c1-1.1,2.8-2.4,5.2-2.4
			c3.3,0,5,1.9,5,4.9v10.7L141.1,253.4L141.1,253.4z"/>
		<path class="st0" d="M159.3,253.4v-9.2c0-2.2-1.1-2.8-2.8-2.8c-1.5,0-2.8,0.9-3.4,1.9v10.3h-4v-15.2h4v2c1-1.1,2.8-2.4,5.2-2.4
			c3.3,0,5,1.9,5,4.9v10.7L159.3,253.4L159.3,253.4z"/>
		<path class="st0" d="M166.9,234.1c0-1.3,1.1-2.3,2.4-2.3c1.3,0,2.4,1,2.4,2.3c0,1.3-1,2.4-2.4,2.4
			C167.9,236.7,166.9,235.5,166.9,234.1z M167.2,253.4v-15.2h4v15.2H167.2z"/>
		<path class="st0" d="M185.5,253.4v-9.2c0-2.2-1.1-2.8-2.8-2.8c-1.5,0-2.8,0.9-3.4,1.9v10.3h-4v-15.2h4.2v2c1-1.1,2.8-2.4,5.2-2.4
			c3.3,0,5,1.9,5,4.9v10.7L185.5,253.4L185.5,253.4z"/>
		<path class="st0" d="M193.1,257.5l1.9-2.8c1.3,1.3,2.8,1.9,4.7,1.9c1.9,0,4.2-0.9,4.2-3.8v-1.5c-1.1,1.5-2.8,2.4-4.7,2.4
			c-3.8,0-6.8-2.7-6.8-7.8c0-5,2.8-7.8,6.8-7.8c1.9,0,3.4,0.8,4.7,2.3v-2h4v14.2c0,5.7-4.5,7.2-8.2,7.2
			C197.1,259.8,195.1,259.2,193.1,257.5z M203.9,248.2v-4.9c-0.8-1-2.2-1.7-3.4-1.7c-2.3,0-3.8,1.5-3.8,4.2c0,2.6,1.5,4.2,3.8,4.2
			C201.7,249.9,203.1,249.2,203.9,248.2z"/>
	</g>
	<g>
		<path class="st0" d="M98.3,288.4l2.4-3.4c1.4,1.5,3.7,2.8,6.8,2.8c2.4,0,3.7-1.1,3.7-2.3c0-3.7-12-1.1-12-9.1c0-3.4,3.1-6.4,8-6.4
			c3.3,0,6.1,1,8.2,2.8l-2.4,3.3c-1.7-1.5-4-2.3-6.1-2.3c-1.9,0-3.1,0.9-3.1,2.2c0,3.3,12,1.1,12,8.9c0,3.8-2.7,6.8-8.4,6.8
			C103.1,291.5,100.3,290.4,98.3,288.4z"/>
		<path class="st0" d="M117.6,283.6c0-4.5,3.3-8,7.9-8s7.5,3.4,7.5,8.4v0.9h-11.4c0.3,1.9,1.9,3.6,4.5,3.6c1.3,0,3.2-0.5,4-1.5
			l1.7,2.6c-1.5,1.4-3.8,2.2-6.3,2.2C121.1,291.5,117.6,288.6,117.6,283.6z M125.3,279c-2.4,0-3.6,1.9-3.7,3.4h7.4
			C128.9,280.6,127.9,279,125.3,279z"/>
		<path class="st0" d="M135.9,291.4v-15.2h4v2.2c1-1.3,3.1-2.4,4.9-2.4v3.8c-0.3,0-0.8-0.1-1.1-0.1c-1.3,0-3.2,0.8-3.7,1.7v10h-4
			V291.4z"/>
		<path class="st0" d="M151.3,291.4l-6.1-15.2h4.3l4,10.6l4-10.6h4.3l-6.1,15.2H151.3z"/>
		<path class="st0" d="M162.9,272.1c0-1.3,1.1-2.3,2.4-2.3c1.3,0,2.4,1,2.4,2.3s-1,2.4-2.4,2.4C164.2,274.4,162.9,273.4,162.9,272.1
			z M163.3,291.4v-15.2h4v15.2H163.3z"/>
		<path class="st0" d="M170.4,283.6c0-4.7,3.4-8,8-8c3.2,0,5,1.3,6,2.7l-2.6,2.4c-0.8-1-1.9-1.5-3.2-1.5c-2.4,0-4.2,1.7-4.2,4.5
			c0,2.6,1.7,4.5,4.2,4.5c1.4,0,2.4-0.5,3.2-1.5l2.6,2.4c-1,1.4-2.8,2.7-6,2.7C173.6,291.5,170.4,288.4,170.4,283.6z"/>
		<path class="st0" d="M186.3,283.6c0-4.5,3.3-8,7.9-8c4.6,0,7.5,3.4,7.5,8.4v0.9h-11.4c0.3,1.9,1.9,3.6,4.5,3.6
			c1.3,0,3.2-0.5,4-1.5l1.7,2.6c-1.5,1.4-3.8,2.2-6.3,2.2C189.7,291.5,186.3,288.6,186.3,283.6z M194.1,279c-2.4,0-3.6,1.9-3.7,3.4
			h7.4C197.7,280.6,196.5,279,194.1,279z"/>
	</g>
	<g>
		<path class="st0" d="M82.3,367v-21.1h14.9v4H86.8v4.5H97v4H86.8v4.7h10.5v4L82.3,367L82.3,367z"/>
		<path class="st0" d="M110,367l-3.4-5.1l-3.4,5.1h-4.5l5.5-7.9l-5-7.4h4.2l3.2,4.7l3.2-4.7h4.5l-5.1,7.4l5.5,7.9H110z"/>
		<path class="st0" d="M114.4,359.3c0-4.7,3.4-8,8-8c3.2,0,5,1.3,6,2.7l-2.6,2.4c-0.8-1-1.9-1.5-3.2-1.5c-2.4,0-4.2,1.7-4.2,4.5
			c0,2.6,1.7,4.5,4.2,4.5c1.4,0,2.4-0.5,3.2-1.5l2.6,2.4c-1,1.4-2.8,2.7-6,2.7C117.8,367.3,114.4,364.1,114.4,359.3z"/>
		<path class="st0" d="M141.4,367v-9.3c0-2.2-1.1-2.7-2.8-2.7c-1.5,0-2.7,0.9-3.4,1.9v10.3h-4v-21.1h4v7.8c1-1.1,2.8-2.4,5.2-2.4
			c3.3,0,5,1.9,5,4.7V367L141.4,367C141.4,366.9,141.4,367,141.4,367z"/>
		<path class="st0" d="M158.4,367v-1.5c-1,1.3-2.8,2-4.9,2c-2.4,0-5.2-1.5-5.2-5c0-3.6,2.8-4.9,5.2-4.9c2,0,3.8,0.8,4.9,1.9v-2.2
			c0-1.5-1.3-2.6-3.3-2.6c-1.5,0-3.2,0.5-4.5,1.9l-1.5-2.7c1.9-1.5,4.3-2.4,6.6-2.4c3.4,0,6.6,1.4,6.6,5.7v9.8L158.4,367L158.4,367z
			 M158.4,363.2v-1.7c-0.8-0.9-1.9-1.3-3.2-1.3c-1.5,0-2.8,0.9-2.8,2.3c0,1.4,1.3,2.3,2.8,2.3C156.6,364.5,157.9,364.2,158.4,363.2z
			"/>
		<path class="st0" d="M177,367v-9.2c0-2.2-1.1-2.8-2.8-2.8c-1.5,0-2.8,0.9-3.4,1.9v10.3h-4.1v-15.2h4v2c1-1.1,2.8-2.4,5.2-2.4
			c3.3,0,5,1.9,5,4.9v10.7L177,367L177,367z"/>
		<path class="st0" d="M184.4,370.8l1.9-2.8c1.3,1.3,2.8,1.9,4.7,1.9c1.9,0,4.2-0.9,4.2-3.8v-1.7c-1.1,1.5-2.8,2.4-4.7,2.4
			c-3.8,0-6.8-2.7-6.8-7.8c0-5,2.8-7.8,6.8-7.8c1.9,0,3.4,0.8,4.7,2.3v-2h4v14.2c0,5.7-4.5,7.2-8.2,7.2
			C188.6,373,186.5,372.6,184.4,370.8z M195.1,361.6v-4.9c-0.8-1-2.2-1.7-3.4-1.7c-2.3,0-3.8,1.5-3.8,4.2s1.5,4.2,3.8,4.2
			C193.1,363.2,194.6,362.5,195.1,361.6z"/>
		<path class="st0" d="M202.3,359.3c0-4.5,3.3-8,7.9-8c4.6,0,7.5,3.4,7.5,8.4v0.9h-11.1c0.3,1.9,1.9,3.6,4.5,3.6
			c1.3,0,3.2-0.5,4-1.5l1.7,2.6c-1.5,1.4-3.8,2.2-6.3,2.2C205.7,367.3,202.3,364.3,202.3,359.3z M210,354.5c-2.4,0-3.6,1.9-3.7,3.4
			h7.4C213.7,356.4,212.9,354.5,210,354.5z"/>
	</g>
	<g>
		<path class="st0" d="M121.3,329.2v-21.1h11c4,0,6,2.6,6,5.2c0,2.6-1.5,4.5-3.6,4.9c2.3,0.3,4,2.6,4,5.1c0,3.2-2.2,5.7-6.1,5.7
			h-11.2V329.2z M133.5,314.4c0-1.3-1-2.3-2.4-2.3h-5.6v4.6h5.6C132.6,316.4,133.5,315.6,133.5,314.4z M134.2,322.9
			c0-1.3-1-2.4-2.7-2.4h-5.7v4.9h5.7C133,325.4,134.2,324.3,134.2,322.9z"/>
		<path class="st0" d="M140.8,321.5c0-4.5,3.3-8,7.9-8c4.6,0,7.5,3.4,7.5,8.4v0.9h-11.4c0.3,1.9,1.9,3.6,4.5,3.6
			c1.3,0,3.2-0.5,4-1.5l1.7,2.6c-1.5,1.4-3.8,2.2-6.3,2.2C144.4,329.3,140.8,326.5,140.8,321.5z M148.7,316.8
			c-2.4,0-3.6,1.9-3.7,3.4h7.4C152.6,318.6,151.4,316.8,148.7,316.8z"/>
		<path class="st0" d="M160,325.4v-7.9h-2.6V314h2.6v-4.3h4v4.2h3.2v3.4h-3.1v6.9c0,1,0.5,1.7,1.4,1.7c0.5,0,1.1-0.3,1.4-0.4
			l0.9,3.1c-0.5,0.5-1.7,1-3.3,1C161.6,329.3,160,327.9,160,325.4z"/>
		<path class="st0" d="M170.8,325.4v-7.9h-2.6V314h2.6v-4.3h4v4.2h3.2v3.4h-3.2v6.9c0,1,0.5,1.7,1.4,1.7c0.5,0,1.1-0.3,1.4-0.4
			l0.9,3.1c-0.5,0.5-1.7,1-3.3,1C172.2,329.3,170.8,327.9,170.8,325.4z"/>
		<path class="st0" d="M179.8,321.5c0-4.5,3.3-8,7.9-8c4.6,0,7.5,3.4,7.5,8.4v0.9h-11.4c0.3,1.9,1.9,3.6,4.5,3.6
			c1.3,0,3.2-0.5,4-1.5l1.7,2.6c-1.5,1.4-3.8,2.2-6.3,2.2C183.1,329.3,179.8,326.5,179.8,321.5z M187.7,316.8
			c-2.4,0-3.6,1.9-3.7,3.4h7.4C191.3,318.6,190.1,316.8,187.7,316.8z"/>
		<path class="st0" d="M198,329.2V314h4v2.2c1-1.3,3.1-2.4,4.9-2.4v3.8c-0.3,0-0.8-0.1-1.1-0.1c-1.3,0-3.2,0.8-3.7,1.7v10h-4V329.2z
			"/>
		<g>
			<path class="st0" d="M107.3,328.9c-0.4-0.4-1-1-1.5-1.5c-1.5,1.1-3.4,2-5.7,2c-3.8,0-6.9-2-6.9-6c0-3.2,2.2-4.9,4.5-6
				c-0.9-1.5-1.4-3.2-1.4-4.6c0-2.8,2.6-5,6-5c3.1,0,5.6,1.5,5.6,4.5c0,3.2-2.6,4.6-5.1,5.7c0.5,0.9,1.3,1.5,1.9,2.3
				c0.5,0.8,1.1,1.4,1.7,2.2c0.9-1.3,1.5-2.8,1.9-4l3.2,1.4c-0.8,1.7-1.7,3.4-2.8,5c1.3,1.3,2.6,2.7,4,4.2L107.3,328.9L107.3,328.9z
				 M103.6,325.1c-1-1-1.9-2-2.3-2.7c-0.8-0.9-1.4-1.9-2.2-2.7c-1.1,0.8-1.9,1.7-1.9,3.2c0,2,1.5,3.3,3.3,3.3
				C101.7,326.3,102.7,325.7,103.6,325.1z M101.2,315.6c1.7-0.9,3.2-1.7,3.2-3.3c0-1.1-0.9-1.7-1.9-1.7c-1.3,0-2.2,1-2.2,2.3
				C100.3,313.6,100.6,314.6,101.2,315.6z"/>
		</g>
	</g>
	<g>
		<path class="st0" d="M124.1,404.7l-4.2-7.4h-3.3v7.4h-4.5v-21.1h9.8c4.5,0,7,2.8,7,6.8c0,3.7-2.3,5.7-4.6,6.3l4.7,8L124.1,404.7
			L124.1,404.7z M124.3,390.4c0-1.7-1.3-2.8-3.2-2.8h-4.7v5.7h4.7C122.9,393.2,124.3,392.4,124.3,390.4z"/>
		<path class="st0" d="M140.7,404.7v-1.5c-1,1.3-2.8,2-4.9,2c-2.4,0-5.2-1.5-5.2-5c0-3.6,2.8-4.9,5.2-4.9c2,0,3.8,0.8,4.9,1.9v-2
			c0-1.5-1.3-2.6-3.3-2.6c-1.5,0-3.2,0.5-4.5,1.9l-1.5-2.7c1.9-1.5,4.3-2.4,6.6-2.4c3.4,0,6.6,1.4,6.6,5.7v9.8L140.7,404.7
			L140.7,404.7z M140.7,401v-1.9c-0.8-0.9-1.9-1.3-3.2-1.3c-1.5,0-2.8,0.9-2.8,2.3c0,1.4,1.3,2.3,2.8,2.3
			C139,402.4,140,401.9,140.7,401z"/>
		<path class="st0" d="M149.5,401v-7.9h-2.4v-3.4h2.6v-4.1h4v4.2h3.2v3.4h-3.2v6.9c0,1,0.5,1.7,1.4,1.7c0.5,0,1.1-0.3,1.4-0.4
			l0.9,3.1c-0.5,0.5-1.7,1-3.3,1C151.1,405.1,149.5,403.7,149.5,401z"/>
		<path class="st0" d="M158.4,397.2c0-4.5,3.3-8,7.9-8c4.6,0,7.5,3.4,7.5,8.4v0.9h-11.4c0.3,1.9,1.9,3.6,4.5,3.6
			c1.3,0,3.2-0.5,4-1.5l1.7,2.6c-1.5,1.4-3.8,2.2-6.3,2.2C162,405.1,158.4,402.1,158.4,397.2z M166.4,392.4c-2.4,0-3.6,1.9-3.7,3.4
			h7.4C170.1,394.2,169,392.4,166.4,392.4z"/>
		<path class="st0" d="M175.6,402.8l1.7-2.8c1.1,1,3.4,2.2,5.2,2.2c1.7,0,2.6-0.8,2.6-1.5c0-2.6-9.1-0.4-9.1-6.4
			c0-2.6,2.3-4.7,6.3-4.7c2.6,0,4.6,0.9,6.1,2.2l-1.5,2.7c-0.9-1-2.6-1.7-4.5-1.7c-1.4,0-2.4,0.8-2.4,1.5c0,2.3,9.1,0.4,9.1,6.6
			c0,2.7-2.4,4.9-6.6,4.9C179.5,405.1,177.2,404.3,175.6,402.8z"/>
		<g>
			<path class="st0" d="M191.3,402.6c0-1.4,1.1-2.6,2.6-2.6c1.4,0,2.6,1.1,2.6,2.6c0,1.4-1.1,2.6-2.6,2.6
				C192.4,405.3,191.3,404.2,191.3,402.6z"/>
		</g>
	</g>
</g>
<g>
	<g>
		<path class="st0" d="M-326.8,143.7c0-5.8,4.4-9.6,9.9-9.6c3.9,0,6.3,1.9,7.7,4.2l-3.3,1.8c-0.9-1.3-2.4-2.4-4.4-2.4
			c-3.4,0-5.8,2.5-5.8,6.1s2.4,6.1,5.8,6.1c1.7,0,3.2-0.8,3.9-1.4v-2.2h-5v-3.4h8.9v7.1c-1.9,2.2-4.6,3.6-7.9,3.6
			C-322.4,153.5-326.8,149.7-326.8,143.7z"/>
		<path class="st0" d="M-306.8,146.2c0-3.9,2.9-7.1,7-7.1c4.1,0,6.7,3,6.7,7.5v0.8h-10c0.3,1.7,1.7,3.2,3.9,3.2
			c1.1,0,2.8-0.5,3.6-1.4l1.5,2.3c-1.4,1.3-3.4,1.9-5.6,1.9C-303.6,153.3-306.8,150.7-306.8,146.2z M-299.8,142
			c-2.2,0-3.2,1.7-3.3,3h6.6C-296.6,143.7-297.5,142-299.8,142z"/>
		<path class="st0" d="M-289.6,149.7v-7h-2.3v-3h2.3v-3.7h3.6v3.7h2.8v3h-2.8v6.1c0,0.9,0.5,1.5,1.3,1.5c0.5,0,1-0.3,1.3-0.4
			l0.8,2.7c-0.5,0.5-1.5,0.9-2.9,0.9C-288.4,153.3-289.6,152.1-289.6,149.7z"/>
		<path class="st0" d="M-260.9,153l-1.1-3.2h-8l-1.1,3.2h-4.6l7.2-18.7h5l7.2,18.7H-260.9z M-266,138.4l-2.9,8h5.7L-266,138.4z"/>
		<path class="st0" d="M-243.2,153l-2.8-9.1l-2.8,9.1h-3.8l-4.1-13.5h3.7l2.5,9.1l2.9-9.1h3l2.9,9.1l2.5-9.1h3.7l-4.1,13.5H-243.2z"
			/>
		<path class="st0" d="M-225.5,153v-1.4c-0.9,1.1-2.5,1.8-4.3,1.8c-2.2,0-4.7-1.4-4.7-4.4c0-3.2,2.5-4.3,4.7-4.3
			c1.8,0,3.4,0.6,4.3,1.7v-1.8c0-1.4-1.1-2.3-2.9-2.3c-1.4,0-2.8,0.5-3.9,1.7l-1.4-2.4c1.7-1.4,3.8-2.2,5.8-2.2c3,0,5.8,1.3,5.8,5.1
			v8.8L-225.5,153L-225.5,153z M-225.5,149.7V148c-0.6-0.8-1.7-1.1-2.8-1.1c-1.4,0-2.5,0.8-2.5,2s1.1,2,2.5,2
			C-227.3,150.9-226.1,150.4-225.5,149.7z"/>
		<path class="st0" d="M-218.5,153v-13.5h3.6v1.9c0.9-1.1,2.7-2.2,4.3-2.2v3.4c-0.3,0-0.6-0.1-1-0.1c-1.1,0-2.8,0.6-3.3,1.5v8.9
			H-218.5L-218.5,153z"/>
		<path class="st0" d="M-199.4,153v-1.8c-1,1.4-2.5,2-4.2,2c-3.4,0-6-2.5-6-7.1c0-4.4,2.5-7.1,6-7.1c1.7,0,3,0.8,4.2,2v-6.9h3.6
			v18.7L-199.4,153L-199.4,153z M-199.4,148.6v-4.8c-0.6-0.9-1.9-1.5-3-1.5c-2,0-3.4,1.7-3.4,3.9s1.4,3.9,3.4,3.9
			C-200.9,150.2-199.6,149.5-199.4,148.6z"/>
	</g>
	<g>
		<g>
			<path class="st0" d="M-348.6,187.1l-3.3-12.8l-3.3,12.8h-4.1l-5.3-18.5h4.4l3.3,13.5l3.6-13.5h2.9l3.6,13.5l3.3-13.5h4.4
				l-5.3,18.7h-4.2C-348.6,187.2-348.6,187.1-348.6,187.1z"/>
			<path class="st0" d="M-337.7,169.9c0-1.1,1-2,2.2-2s2.2,0.9,2.2,2s-0.9,2.2-2.2,2.2S-337.7,171.2-337.7,169.9z M-337.3,187.1
				v-13.5h3.6v13.5H-337.3z"/>
			<path class="st0" d="M-321.1,187.1V179c0-1.9-1-2.5-2.5-2.5c-1.4,0-2.5,0.8-3,1.7v9.1h-3.6v-13.5h3.6v1.8c0.9-1,2.5-2.2,4.7-2.2
				c2.9,0,4.4,1.7,4.4,4.3v9.5L-321.1,187.1L-321.1,187.1z"/>
			<path class="st0" d="M-304.9,187.1V179c0-1.9-1-2.5-2.5-2.5c-1.4,0-2.5,0.8-3,1.7v9.1h-3.6v-13.5h3.6v1.8c0.9-1,2.5-2.2,4.7-2.2
				c2.9,0,4.4,1.7,4.4,4.3v9.5L-304.9,187.1L-304.9,187.1z"/>
			<path class="st0" d="M-298.2,169.9c0-1.1,1-2,2.2-2s2.2,0.9,2.2,2s-0.9,2.2-2.2,2.2C-297.3,172.2-298.2,171.2-298.2,169.9z
				 M-297.9,187.1v-13.5h3.6v13.5H-297.9z"/>
			<path class="st0" d="M-281.7,187.1V179c0-1.9-1-2.5-2.5-2.5c-1.4,0-2.5,0.8-3,1.7v9.1h-3.6v-13.5h3.7v1.8c0.9-1,2.5-2.2,4.7-2.2
				c2.9,0,4.4,1.7,4.4,4.3v9.5L-281.7,187.1L-281.7,187.1z"/>
			<path class="st0" d="M-275,190.6l1.7-2.5c1.1,1.1,2.5,1.7,4.2,1.7s3.7-0.8,3.7-3.4v-1.4c-1,1.4-2.5,2.2-4.2,2.2
				c-3.4,0-6-2.4-6-6.9s2.5-6.9,6-6.9c1.7,0,3,0.6,4.2,2v-1.8h3.6v12.6c0,5.1-3.9,6.3-7.2,6.3C-271.4,192.7-273.2,192.2-275,190.6z
				 M-265.4,182.4v-4.3c-0.6-0.9-1.9-1.5-3-1.5c-2,0-3.4,1.4-3.4,3.7s1.4,3.7,3.4,3.7C-267.4,183.9-266.1,183.3-265.4,182.4z"/>
		</g>
		<g>
			<path class="st0" d="M-249.7,184.9l2.2-3c1.3,1.4,3.3,2.5,6,2.5c2.2,0,3.3-1,3.3-2c0-3.3-10.7-1-10.7-8c0-3,2.7-5.7,7.1-5.7
				c2.9,0,5.5,0.9,7.2,2.5l-2.2,2.9c-1.5-1.4-3.6-2-5.5-2c-1.7,0-2.7,0.8-2.7,1.9c0,2.9,10.7,1,10.7,7.9c0,3.4-2.4,6-7.5,6
				C-245.4,187.7-247.9,186.7-249.7,184.9z"/>
			<path class="st0" d="M-232.7,180.6c0-3.9,2.9-7.1,7-7.1s6.7,3,6.7,7.5v0.8h-10c0.3,1.7,1.7,3.2,3.9,3.2c1.1,0,2.8-0.5,3.6-1.4
				l1.5,2.3c-1.4,1.3-3.4,1.9-5.6,1.9C-229.5,187.7-232.7,185-232.7,180.6z M-225.7,176.5c-2.2,0-3.2,1.7-3.3,3h6.6
				C-222.5,178-223.4,176.5-225.7,176.5z"/>
			<path class="st0" d="M-216.3,187.6v-13.5h3.6v1.9c0.9-1.1,2.7-2.2,4.3-2.2v3.4c-0.3,0-0.6-0.1-1-0.1c-1.1,0-2.8,0.6-3.3,1.5v8.9
				H-216.3z"/>
			<path class="st0" d="M-202.7,187.6l-5.5-13.5h3.8l3.6,9.4l3.6-9.4h3.8l-5.5,13.5H-202.7z"/>
			<path class="st0" d="M-192.4,170.4c0-1.1,1-2,2.2-2s2.2,0.9,2.2,2c0,1.1-0.9,2.2-2.2,2.2C-191.3,172.4-192.4,171.6-192.4,170.4z
				 M-192.1,187.6v-13.5h3.6v13.5H-192.1z"/>
			<path class="st0" d="M-185.7,180.6c0-4.2,3-7.1,7.1-7.1c2.8,0,4.4,1.1,5.3,2.4l-2.3,2.2c-0.6-0.9-1.7-1.4-2.8-1.4
				c-2.2,0-3.7,1.5-3.7,3.9c0,2.3,1.5,3.9,3.7,3.9c1.3,0,2.2-0.5,2.8-1.4l2.3,2.2c-0.9,1.3-2.5,2.4-5.3,2.4
				C-182.9,187.7-185.7,184.9-185.7,180.6z"/>
			<path class="st0" d="M-171.7,180.6c0-3.9,2.9-7.1,7-7.1s6.7,3,6.7,7.5v0.8h-10c0.3,1.7,1.7,3.2,3.9,3.2c1.1,0,2.8-0.5,3.6-1.4
				l1.5,2.3c-1.4,1.3-3.4,1.9-5.6,1.9C-168.7,187.7-171.7,185-171.7,180.6z M-164.8,176.5c-2.2,0-3.2,1.7-3.3,3h6.6
				C-161.6,178-162.6,176.5-164.8,176.5z"/>
		</g>
	</g>
	<g>
		<path class="st0" d="M-286.8,223.9v-18.7h9.8c3.6,0,5.3,2.3,5.3,4.7c0,2.3-1.4,3.9-3.2,4.3c2,0.3,3.6,2.3,3.6,4.6
			c0,2.8-1.9,5.1-5.5,5.1H-286.8z M-275.9,210.7c0-1.1-0.9-2-2.2-2h-5v4.1h5C-276.7,212.6-275.9,211.8-275.9,210.7z M-275.4,218.3
			c0-1.1-0.9-2.2-2.4-2.2h-5.1v4.3h5.1C-276.4,220.5-275.4,219.6-275.4,218.3z"/>
		<path class="st0" d="M-269.4,217c0-3.9,2.9-7.1,7-7.1c4.1,0,6.7,3,6.7,7.5v0.8h-10c0.3,1.7,1.7,3.2,3.9,3.2c1.1,0,2.8-0.5,3.6-1.4
			l1.5,2.3c-1.4,1.3-3.4,1.9-5.6,1.9C-266.3,224-269.4,221.5-269.4,217z M-262.5,212.9c-2.2,0-3.2,1.7-3.3,3h6.6
			C-259,214.5-260,212.9-262.5,212.9z"/>
		<path class="st0" d="M-252.4,220.5v-7h-2.3v-3h2.3v-3.8h3.6v3.7h2.8v3h-2.8v6.1c0,0.9,0.5,1.5,1.3,1.5c0.5,0,1-0.3,1.3-0.4
			l0.8,2.7c-0.5,0.5-1.5,0.9-2.9,0.9C-251,224-252.4,222.8-252.4,220.5z"/>
		<path class="st0" d="M-242.9,220.5v-7h-2.3v-3h2.3v-3.8h3.6v3.7h2.8v3h-2.8v6.1c0,0.9,0.5,1.5,1.3,1.5c0.5,0,1-0.3,1.3-0.4
			l0.8,2.7c-0.5,0.5-1.5,0.9-2.9,0.9C-241.6,224-242.9,222.8-242.9,220.5z"/>
		<path class="st0" d="M-234.9,217c0-3.9,2.9-7.1,7-7.1s6.7,3,6.7,7.5v0.8h-10c0.3,1.7,1.7,3.2,3.9,3.2c1.1,0,2.8-0.5,3.6-1.4
			l1.5,2.3c-1.4,1.3-3.4,1.9-5.6,1.9C-232,224-234.9,221.5-234.9,217z M-227.9,212.9c-2.2,0-3.2,1.7-3.3,3h6.6
			C-224.8,214.5-225.8,212.9-227.9,212.9z"/>
		<path class="st0" d="M-218.8,223.9v-13.5h3.6v1.9c0.9-1.1,2.7-2.2,4.3-2.2v3.4c-0.3,0-0.6-0.1-1-0.1c-1.1,0-2.8,0.6-3.3,1.5v8.9
			L-218.8,223.9L-218.8,223.9z"/>
		<g>
			<path class="st0" d="M-299.1,223.5c-0.4-0.4-0.9-0.9-1.4-1.4c-1.4,1-3,1.8-5.1,1.8c-3.4,0-6.1-1.8-6.1-5.3c0-2.8,1.9-4.3,3.9-5.3
				c-0.8-1.4-1.3-2.8-1.3-4.1c0-2.5,2.3-4.4,5.3-4.4c2.7,0,5,1.4,5,3.9c0,2.8-2.3,4.1-4.6,5.1c0.5,0.8,1.1,1.4,1.7,2
				c0.5,0.6,1,1.3,1.5,1.9c0.8-1.1,1.4-2.5,1.7-3.6l2.8,1.3c-0.6,1.5-1.5,3-2.5,4.4c1.1,1.1,2.3,2.4,3.6,3.7H-299.1L-299.1,223.5z
				 M-302.5,220.2c-0.9-0.9-1.7-1.8-2-2.4c-0.6-0.8-1.3-1.7-1.9-2.4c-1,0.6-1.7,1.5-1.7,2.8c0,1.8,1.4,2.9,2.9,2.9
				C-304.1,221.2-303.2,220.9-302.5,220.2z M-304.6,211.8c1.5-0.8,2.8-1.5,2.8-2.9c0-1-0.8-1.5-1.7-1.5c-1.1,0-1.9,0.9-1.9,2
				C-305.4,210.1-305.1,210.8-304.6,211.8z"/>
		</g>
	</g>
	<g>
		<g>
			<path class="st0" d="M-363.5,258.8v-18.7h13.2v3.6h-9.3v3.9h9v3.6h-9v4.2h9.3v3.6L-363.5,258.8L-363.5,258.8z"/>
			<path class="st0" d="M-338.9,258.8l-3-4.6l-3,4.6h-3.9l4.8-7l-4.4-6.6h3.7l2.8,4.2l2.8-4.2h3.9l-4.6,6.6l4.8,7H-338.9z"/>
			<path class="st0" d="M-335.1,251.9c0-4.2,3-7.1,7.1-7.1c2.8,0,4.4,1.1,5.3,2.4l-2.3,2.2c-0.6-0.9-1.7-1.4-2.8-1.4
				c-2.2,0-3.7,1.5-3.7,3.9c0,2.3,1.5,3.9,3.7,3.9c1.3,0,2.2-0.5,2.8-1.4l2.3,2.2c-0.9,1.3-2.5,2.4-5.3,2.4
				C-332,259.1-335.1,256.1-335.1,251.9z"/>
			<path class="st0" d="M-311.1,258.8v-8.3c0-1.9-1-2.4-2.5-2.4c-1.4,0-2.4,0.8-3,1.7v9.1h-3.6v-18.7h3.6v6.9c0.9-1,2.5-2.2,4.7-2.2
				c2.9,0,4.4,1.7,4.4,4.2v9.5h-3.6V258.8z"/>
			<path class="st0" d="M-296,258.8v-1.4c-0.9,1.1-2.5,1.8-4.3,1.8c-2.2,0-4.7-1.4-4.7-4.4c0-3.2,2.5-4.3,4.7-4.3
				c1.8,0,3.4,0.6,4.3,1.7v-1.8c0-1.4-1.1-2.3-2.9-2.3c-1.4,0-2.8,0.5-3.9,1.7l-1.4-2.4c1.7-1.4,3.8-2.2,5.8-2.2
				c3,0,5.8,1.3,5.8,5.1v8.8L-296,258.8L-296,258.8z M-296,255.4v-1.5c-0.6-0.8-1.7-1.1-2.8-1.1c-1.4,0-2.5,0.8-2.5,2
				c0,1.3,1.1,2,2.5,2C-297.6,256.5-296.5,256.3-296,255.4z"/>
			<path class="st0" d="M-279.6,258.8v-8.1c0-1.9-1-2.5-2.5-2.5c-1.4,0-2.5,0.8-3,1.7v9.1h-3.6v-13.5h3.6v1.8c0.9-1,2.5-2.2,4.7-2.2
				c2.9,0,4.4,1.7,4.4,4.3v9.5L-279.6,258.8L-279.6,258.8z"/>
			<path class="st0" d="M-273,262.2l1.7-2.5c1.1,1.1,2.5,1.7,4.2,1.7s3.7-0.8,3.7-3.4v-1.5c-1,1.4-2.5,2.2-4.2,2.2
				c-3.4,0-6-2.4-6-6.9s2.5-6.9,6-6.9c1.7,0,3,0.6,4.2,2v-1.8h3.6v12.6c0,5.1-3.9,6.3-7.2,6.3C-269.3,264.1-271.1,263.8-273,262.2z
				 M-263.5,254v-4.3c-0.6-0.9-1.9-1.5-3-1.5c-2,0-3.4,1.4-3.4,3.7s1.4,3.7,3.4,3.7C-265.3,255.4-264,254.9-263.5,254z"/>
			<path class="st0" d="M-257.1,251.9c0-3.9,2.9-7.1,7-7.1s6.7,3,6.7,7.5v0.8h-9.9c0.3,1.7,1.7,3.2,3.9,3.2c1.1,0,2.8-0.5,3.6-1.4
				l1.5,2.3c-1.4,1.3-3.4,1.9-5.6,1.9C-254.1,259.1-257.1,256.4-257.1,251.9z M-250.3,247.6c-2.2,0-3.2,1.7-3.3,3h6.6
				C-247,249.4-247.7,247.6-250.3,247.6z"/>
		</g>
		<g>
			<path class="st0" d="M-223.2,258.6l-3.7-6.6h-2.9v6.6h-3.9v-18.7h8.8c3.9,0,6.2,2.5,6.2,6c0,3.3-2,5.1-4.1,5.6l4.2,7.1H-223.2z
				 M-223,245.9c0-1.5-1.1-2.5-2.8-2.5h-4.2v5.1h4.2C-224.2,248.4-223,247.6-223,245.9z"/>
			<path class="st0" d="M-208.5,258.6v-1.4c-0.9,1.1-2.5,1.8-4.3,1.8c-2.2,0-4.7-1.4-4.7-4.4c0-3.2,2.5-4.3,4.7-4.3
				c1.8,0,3.4,0.6,4.3,1.7V250c0-1.4-1.1-2.3-2.9-2.3c-1.4,0-2.8,0.5-3.9,1.7l-1.4-2.4c1.7-1.4,3.8-2.2,5.8-2.2c3,0,5.8,1.3,5.8,5.1
				v8.8L-208.5,258.6L-208.5,258.6z M-208.5,255.3v-1.7c-0.6-0.8-1.7-1.1-2.8-1.1c-1.4,0-2.5,0.8-2.5,2c0,1.3,1.1,2,2.5,2
				C-210,256.5-209.1,256-208.5,255.3z"/>
			<path class="st0" d="M-200.8,255.3v-7h-2.2v-3h2.3v-3.7h3.6v3.7h2.8v3h-2.8v6.1c0,0.9,0.5,1.5,1.3,1.5c0.5,0,1-0.3,1.3-0.4
				l0.8,2.7c-0.5,0.5-1.5,0.9-2.9,0.9C-199.2,258.9-200.8,257.7-200.8,255.3z"/>
			<path class="st0" d="M-192.8,251.8c0-3.9,2.9-7.1,7-7.1s6.7,3,6.7,7.5v0.8h-10c0.3,1.7,1.7,3.2,3.9,3.2c1.1,0,2.8-0.5,3.6-1.4
				l1.5,2.3c-1.4,1.3-3.4,1.9-5.6,1.9C-189.6,258.9-192.8,256.3-192.8,251.8z M-185.8,247.6c-2.2,0-3.2,1.7-3.3,3h6.6
				C-182.5,249.3-183.4,247.6-185.8,247.6z"/>
			<path class="st0" d="M-177.7,256.9l1.5-2.5c1,0.9,3,1.9,4.7,1.9c1.5,0,2.3-0.6,2.3-1.4c0-2.3-8-0.4-8-5.7c0-2.3,2-4.2,5.6-4.2
				c2.3,0,4.1,0.8,5.5,1.9l-1.4,2.4c-0.8-0.9-2.3-1.5-3.9-1.5c-1.3,0-2.2,0.6-2.2,1.4c0,2,8,0.4,8,5.8c0,2.4-2.2,4.3-5.8,4.3
				C-174.1,258.9-176.1,258.2-177.7,256.9z"/>
			<g>
				<path class="st0" d="M-163.7,256.8c0-1.3,1-2.3,2.3-2.3s2.3,1,2.3,2.3c0,1.3-1,2.3-2.3,2.3S-163.7,258-163.7,256.8z"/>
			</g>
		</g>
	</g>
</g>
</svg>
