<?xml version="1.0" encoding="utf-8"?>
<!-- Generator: Adobe Illustrator 21.1.0, SVG Export Plug-In . SVG Version: 6.00 Build 0)  -->
<svg version="1.1" id="Layer_1" xmlns="http://www.w3.org/2000/svg" xmlns:xlink="http://www.w3.org/1999/xlink" x="0px" y="0px"
	 viewBox="0 0 300 600" style="enable-background:new 0 0 300 600;" xml:space="preserve">
<style type="text/css">
	.st0{fill:#66C294;}
	.st1{fill:#FFFFFF;}
</style>
<rect class="st0" width="300" height="600"/>
<g>
	<path class="st1" d="M70.4,339.9c0,4.1-3.3,7.4-7.4,7.4l0,0c-4.1,0-7.4-3.3-7.4-7.4v-79.8c0-4.1,3.3-7.4,7.4-7.4l0,0
		c4.1,0,7.4,3.3,7.4,7.4V339.9z"/>
	<g>
		<g>
			<path class="st1" d="M196,269.6h-7.7c-4.4,0-7.6,1.6-7.6,7.6v25.6c0,0.8,0.7,1.5,1.5,1.5h1.2c0.8,0,1.5-0.7,1.5-1.5v-16.3h9.5
				c0.8,0,1.5-0.7,1.5-1.5v-0.7c0-0.8-0.7-1.5-1.5-1.5h-9.5v-5.5c0-3,0.9-4.1,3.7-4.1h7.4c0.8,0,1.5-0.7,1.5-1.5v-0.7
				C197.5,270.3,196.8,269.6,196,269.6z"/>
			<path class="st1" d="M201.1,282.8H200c-0.8,0-1.5,0.7-1.5,1.5v18.4c0,0.8,0.7,1.5,1.5,1.5h1.2c0.8,0,1.5-0.7,1.5-1.5v-18.4
				C202.6,283.5,202,282.8,201.1,282.8z"/>
			<path class="st1" d="M200.6,275.3c-1.2,0-2.1,0.8-2.1,1.9v1.3c0,1.1,0.9,1.9,2.1,1.9s2.1-0.8,2.1-1.9v-1.3
				C202.6,276.1,201.8,275.3,200.6,275.3z"/>
			<path class="st1" d="M214.5,282.8H212c-4.4,0-6.3,2.4-6.3,6.9v13c0,0.8,0.7,1.5,1.5,1.5h1.2c0.8,0,1.5-0.7,1.5-1.5v-12.9
				c0-2.7,0.7-3.5,3.1-3.5h1.7c0.8,0,1.4-0.7,1.4-1.5v-0.5C216,283.5,215.3,282.8,214.5,282.8z"/>
			<path class="st1" d="M243.4,300.7H242c-2.4,0-3.4-0.8-3.4-3.5v-10.8h3.9c0.8,0,1.5-0.7,1.5-1.5v-0.5c0-0.8-0.7-1.5-1.5-1.5h-3.9
				v-6c0-0.8-0.7-1.5-1.5-1.5H236c-0.8,0-1.5,0.7-1.5,1.5v20.5c0,4.5,1.9,6.9,6.3,6.9h2.5c0.8,0,1.5-0.7,1.5-1.5v-0.6
				C244.7,301.4,244.1,300.7,243.4,300.7z"/>
			<path class="st1" d="M227.5,292l-3.9-1.2c-1.5-0.4-2.4-0.9-2.4-2.2c0-1.7,1.2-2.2,3.4-2.2h5.4c0.8,0,1.5-0.7,1.5-1.5v-0.5
				c0-0.8-0.7-1.5-1.5-1.5h-5.7c-5,0-7.3,2.5-7.3,5.9c0,3.1,1.4,4.6,4.6,5.4l4.6,1.4c1.7,0.4,2.1,1.3,2.1,2.6c0,1.2-0.6,2.7-4.1,2.7
				h-5.6c-0.8,0-1.5,0.7-1.5,1.5v0.5c0,0.8,0.7,1.5,1.5,1.5h5.8c5.7,0,7.9-2.1,7.9-6.4C232.4,294.9,231.3,292.9,227.5,292z"/>
		</g>
		<g>
			<path class="st1" d="M115.3,271.3h-1.2c-0.8,0-1.6,0.7-1.7,1.5l-4.4,28.6l-4.6-16.1c-0.6-2.1-1.6-2.9-3.5-2.9
				c-1.9,0-2.9,0.8-3.5,2.9l-4.6,16.1l-4.4-28.6c-0.1-0.8-0.9-1.5-1.7-1.5h-1.2c-0.8,0-1.4,0.7-1.3,1.5l4.8,29.4
				c0.2,1.4,0.8,2.3,3.6,2.3c2.9,0,3.4-1.1,3.8-2.5l4.4-15.8l4.4,15.8c0.4,1.4,0.9,2.5,3.8,2.5c2.8,0,3.4-0.8,3.6-2.3l4.8-29.4
				C116.7,271.9,116.1,271.3,115.3,271.3z"/>
			<path class="st1" d="M126.2,304.8c5.3,0,9.3-3.5,9.3-8.5V291c0-5.1-4-8.5-9.3-8.5c-5.3,0-9.3,3.5-9.3,8.5v5.2
				C116.9,301.3,120.9,304.8,126.2,304.8z M121.1,291.2c0-3.6,2.2-5.1,5.1-5.1c2.9,0,5.1,1.5,5.1,5.1v4.9c0,3.6-2.2,5.1-5.1,5.1
				c-2.9,0-5.1-1.5-5.1-5.1V291.2z"/>
			<path class="st1" d="M153.9,271.3h-1.2c-0.8,0-1.5,0.7-1.5,1.5v30.1c0,0.8,0.7,1.5,1.5,1.5h1.2c0.8,0,1.5-0.7,1.5-1.5v-30.1
				C155.4,271.9,154.7,271.3,153.9,271.3z"/>
			<path class="st1" d="M141.1,304.4c0.8,0,1.5-0.7,1.5-1.5V290c0-2.7,0.7-3.5,3.1-3.5h1.7c0.8,0,1.4-0.7,1.4-1.5v-0.5
				c0-0.8-0.7-1.5-1.5-1.5h-2.5c-4.4,0-6.3,2.4-6.3,6.9v13c0,0.8,0.7,1.5,1.5,1.5H141.1z"/>
			<path class="st1" d="M174.6,271.3h-1.2c-0.8,0-1.5,0.7-1.5,1.5v10.9c-1.2-0.7-2.6-1.2-4.7-1.2c-4.4,0-8.9,2.8-8.9,9.1v4
				c0,5.6,3.7,9.2,9.4,9.2c3.2,0,4.6-0.5,6.9-1.5c0.8-0.3,1.4-1.2,1.4-2.1v-28.5C176.1,271.9,175.4,271.3,174.6,271.3z M171.9,300.5
				c-1.3,0.3-2.6,0.6-4.3,0.6c-2.9,0-5.1-1.5-5.1-5.1v-5c0-3.8,2.7-4.9,5.1-4.9c2.5,0,4.3,1.4,4.3,2.6V300.5z"/>
		</g>
	</g>
	<g>
		<path class="st1" d="M84.1,312.5c0.4,0,0.7,0.1,0.7,0.2l2.3,9.6l2.3-9.6c0-0.1,0.3-0.2,0.7-0.2h0.4c0.4,0,0.7,0,0.7,0.2l2.3,9.6
			l2.3-9.6c0-0.1,0.3-0.2,0.7-0.2h0.2c0.4,0,0.7,0.1,0.6,0.2l-2.8,10.9c0,0.1-0.3,0.2-0.7,0.2h-0.5c-0.4,0-0.7,0-0.7-0.2l-2.3-9.2
			l-2.2,9.2c0,0.1-0.3,0.2-0.7,0.2h-0.5c-0.4,0-0.7-0.1-0.7-0.2l-3-10.9c0-0.1,0.3-0.2,0.7-0.2H84.1z"/>
		<path class="st1" d="M99.2,320.2c0,0.9,0.3,1.5,0.8,1.9c0.4,0.4,1,0.6,1.8,0.6c0.7,0,1.3-0.2,2.1-0.5c0.1-0.1,0.2-0.1,0.4,0.3
			l0.1,0.2c0.2,0.4,0.2,0.5,0,0.6c-0.8,0.5-1.8,0.7-2.8,0.7c-2.5,0-3.8-1.6-3.8-4.1c0-2.6,1.4-4.5,3.8-4.5c1.4,0,2.3,0.7,2.9,1.7
			c0.4,0.7,0.5,1.6,0.5,2.5c0,0.5,0,0.6-0.2,0.6H99.2z M103.4,319c0-1.2-0.6-2.3-1.9-2.3c-1.1,0-2,0.7-2.3,2.3H103.4z"/>
		<path class="st1" d="M107.5,312.5c0.5,0,0.6,0.1,0.6,0.2l-0.2,4c0,0.1-0.2,0.2-0.5,0.2h-0.2c-0.4,0-0.5,0-0.5-0.2l-0.1-4
			c0-0.1,0.2-0.2,0.6-0.2H107.5z"/>
		<path class="st1" d="M111.1,315.5c0.6,0,0.6,0,0.6,0.2l0,1.6c0.6-1.3,1.5-1.9,2.3-1.9c0.1,0,0.3,0,0.3,0c0.1,0,0.2,0.1,0.2,0.4
			v0.2c0,0.5,0,0.6-0.2,0.6c-1.1,0-1.7,0.7-2.1,1.4c-0.2,0.4-0.3,0.8-0.4,1.3c0,0.4,0,1.4,0,2.3v1.8c0,0.1,0,0.2-0.6,0.2h-0.1
			c-0.6,0-0.7-0.1-0.7-0.2v-5.3c0-1.1,0-2.2,0-2.6C110.4,315.6,110.4,315.5,111.1,315.5L111.1,315.5z"/>
		<path class="st1" d="M116.8,320.2c0,0.9,0.3,1.5,0.8,1.9c0.4,0.4,1,0.6,1.8,0.6c0.7,0,1.3-0.2,2.1-0.5c0.1-0.1,0.2-0.1,0.4,0.3
			l0.1,0.2c0.2,0.4,0.2,0.5,0,0.6c-0.8,0.5-1.8,0.7-2.8,0.7c-2.5,0-3.8-1.6-3.8-4.1c0-2.6,1.4-4.5,3.8-4.5c1.4,0,2.3,0.7,2.9,1.7
			c0.4,0.7,0.5,1.6,0.5,2.5c0,0.5,0,0.6-0.2,0.6H116.8z M121,319c0-1.2-0.6-2.3-1.9-2.3c-1.1,0-2,0.7-2.3,2.3H121z"/>
		<path class="st1" d="M134,322.7c0.2,0.4,0.1,0.5,0,0.5c-0.8,0.4-1.7,0.7-2.7,0.7c-2.4,0-3.6-1.8-3.6-4.2c0-2.9,1.7-4.4,3.9-4.4
			c1,0,1.9,0.3,2.5,0.8c0.1,0.1,0.1,0.2-0.1,0.7c-0.2,0.5-0.4,0.5-0.5,0.4c-0.6-0.4-1.2-0.7-1.8-0.7c-1.5,0-2.5,1.1-2.5,3
			c0,1.5,0.6,3,2.3,3c0.7,0,1.4-0.2,2-0.5c0.1-0.1,0.3,0,0.4,0.3L134,322.7z"/>
		<path class="st1" d="M136.6,311.9c0.6,0,0.7,0.1,0.7,0.2v4.3c0.5-0.6,1.6-1,2.5-1c0.9,0,1.6,0.3,2.1,0.8c0.6,0.6,0.8,1.4,0.8,2.7
			v4.7c0,0.1,0,0.2-0.6,0.2H142c-0.6,0-0.7-0.1-0.7-0.2v-4.1c0-1.3,0-1.9-0.4-2.3c-0.3-0.4-0.8-0.5-1.5-0.5c-0.6,0-1.3,0.2-1.7,0.6
			c-0.2,0.2-0.4,0.4-0.4,1.1c0,0.4,0,1.2,0,2.1v3.1c0,0.1,0,0.2-0.6,0.2h-0.1c-0.6,0-0.7-0.1-0.7-0.2v-11.5
			C135.8,312,135.9,311.9,136.6,311.9L136.6,311.9z"/>
		<path class="st1" d="M150.9,315.5c0.6,0,0.6,0.1,0.6,0.2c0,0.4,0,1.4,0,2.4v2.2c0,1.4,0.1,2.5,0.1,3.3c0,0.1-0.1,0.2-0.6,0.2h-0.1
			c-0.5,0-0.6,0-0.6-0.2l-0.1-0.7c-0.5,0.6-1.4,1.1-2.4,1.1c-2.3,0-3.3-1.9-3.3-4.1c0-2.7,1.5-4.4,3.6-4.4c0.9,0,1.7,0.4,2.1,1
			l0.1-0.7C150.3,315.5,150.4,315.5,150.9,315.5L150.9,315.5z M150.1,317.7c-0.4-0.6-1.1-1.1-1.8-1.1c-1.4,0-2.3,1.2-2.3,3.1
			c0,1.5,0.5,3,2.1,3c0.5,0,1.1-0.2,1.6-0.6c0.3-0.4,0.4-0.8,0.4-2.2V317.7z"/>
		<path class="st1" d="M154.6,315.5c0.6,0,0.6,0,0.6,0.2l0,0.7h0c0.5-0.6,1.6-1,2.6-1c0.9,0,1.6,0.3,2.1,0.8
			c0.6,0.6,0.8,1.4,0.8,2.7v4.7c0,0.1,0,0.2-0.6,0.2H160c-0.6,0-0.7-0.1-0.7-0.2v-4.1c0-1.3,0-1.9-0.4-2.3c-0.3-0.4-0.8-0.5-1.5-0.5
			c-0.6,0-1.3,0.2-1.7,0.6c-0.2,0.2-0.4,0.4-0.4,1.1c0,0.4,0,1.2,0,2.1v3.1c0,0.1,0,0.2-0.6,0.2h-0.1c-0.6,0-0.7-0.1-0.7-0.2v-5.3
			c0-1.1,0-2.2,0-2.6C153.9,315.6,153.9,315.5,154.6,315.5L154.6,315.5z"/>
		<path class="st1" d="M168.8,315.5c0.5,0,0.6,0,0.6,0.2c0.1,0.8,0.1,3,0.1,3.9v2.6c0,1.4-0.1,2.2-0.3,2.9c-0.5,1.5-1.9,2.3-3.5,2.3
			c-0.8,0-1.9-0.2-2.4-0.5c-0.1,0-0.1-0.2,0-0.5l0.1-0.2c0.1-0.4,0.2-0.4,0.3-0.4s0.2,0.1,0.4,0.1c0.5,0.2,0.9,0.3,1.5,0.3
			c1.3,0,2.2-0.6,2.4-1.8c0.1-0.4,0.1-1.1,0.1-1.5c-0.6,0.6-1.5,0.9-2.3,0.9c-2.3,0-3.3-1.7-3.3-4c0-2.7,1.6-4.4,3.6-4.4
			c0.9,0,1.7,0.4,2,1h0v-0.6C168.2,315.6,168.3,315.5,168.8,315.5L168.8,315.5z M168.2,319.4c0-1,0-1.5-0.2-1.8
			c-0.3-0.5-0.8-0.8-1.7-0.8c-1.4,0-2.2,1.2-2.2,3c0,1.8,0.7,2.8,2.1,2.8c0.8,0,1.6-0.4,2-0.9V319.4z"/>
		<path class="st1" d="M172.6,312c0.5,0,1,0.4,1,1c0,0.5-0.4,1-1,1c-0.5,0-1-0.4-1-1C171.6,312.5,172,312,172.6,312z M172.6,315.5
			c0.6,0,0.6,0.1,0.6,0.2v7.9c0,0.1,0,0.2-0.6,0.2h-0.1c-0.6,0-0.7-0.1-0.7-0.2v-7.9C171.9,315.6,171.9,315.5,172.6,315.5
			L172.6,315.5z"/>
		<path class="st1" d="M176.3,315.5c0.6,0,0.6,0,0.6,0.2l0,0.7h0c0.5-0.6,1.6-1,2.6-1c0.9,0,1.6,0.3,2.1,0.8
			c0.6,0.6,0.8,1.4,0.8,2.7v4.7c0,0.1,0,0.2-0.6,0.2h-0.1c-0.6,0-0.7-0.1-0.7-0.2v-4.1c0-1.3,0-1.9-0.4-2.3
			c-0.3-0.4-0.8-0.5-1.5-0.5c-0.6,0-1.3,0.2-1.7,0.6c-0.2,0.2-0.4,0.4-0.4,1.1c0,0.4,0,1.2,0,2.1v3.1c0,0.1,0,0.2-0.6,0.2h-0.1
			c-0.6,0-0.7-0.1-0.7-0.2v-5.3c0-1.1,0-2.2,0-2.6C175.6,315.6,175.7,315.5,176.3,315.5L176.3,315.5z"/>
		<path class="st1" d="M190.6,315.5c0.5,0,0.6,0,0.6,0.2c0.1,0.8,0.1,3,0.1,3.9v2.6c0,1.4-0.1,2.2-0.3,2.9c-0.5,1.5-1.9,2.3-3.5,2.3
			c-0.8,0-1.9-0.2-2.4-0.5c-0.1,0-0.1-0.2,0-0.5l0.1-0.2c0.1-0.4,0.2-0.4,0.3-0.4c0.1,0,0.2,0.1,0.4,0.1c0.5,0.2,0.9,0.3,1.5,0.3
			c1.3,0,2.2-0.6,2.4-1.8c0.1-0.4,0.1-1.1,0.1-1.5c-0.6,0.6-1.5,0.9-2.3,0.9c-2.3,0-3.3-1.7-3.3-4c0-2.7,1.6-4.4,3.6-4.4
			c0.9,0,1.7,0.4,2,1h0v-0.6C189.9,315.6,190,315.5,190.6,315.5L190.6,315.5z M189.9,319.4c0-1,0-1.5-0.2-1.8
			c-0.3-0.5-0.8-0.8-1.7-0.8c-1.4,0-2.2,1.2-2.2,3c0,1.8,0.7,2.8,2.1,2.8c0.8,0,1.6-0.4,2-0.9V319.4z"/>
		<path class="st1" d="M198.2,315.5c0.6,0,0.6,0,0.6,0.2l0,0.7h0c0.5-0.6,1.5-1,2.4-1c0.9,0,1.6,0.3,2.1,0.8
			c0.1,0.2,0.3,0.3,0.4,0.5c0.6-0.9,1.7-1.3,2.8-1.3c0.9,0,1.6,0.3,2.1,0.8c0.6,0.6,0.8,1.4,0.8,2.7v4.7c0,0.1,0,0.2-0.6,0.2h-0.1
			c-0.6,0-0.7-0.1-0.7-0.2v-4.1c0-1.3,0-1.9-0.4-2.3c-0.3-0.4-0.8-0.5-1.4-0.5c-0.5,0-1.2,0.2-1.6,0.5c-0.2,0.2-0.4,0.4-0.4,1.1
			c0,0.4,0,1.2,0,2.1v3.1c0,0.1,0,0.2-0.6,0.2h-0.1c-0.6,0-0.7-0.1-0.7-0.2v-4.1c0-1.3,0-1.9-0.4-2.3c-0.3-0.4-0.8-0.5-1.4-0.5
			c-0.5,0-1.2,0.2-1.6,0.5c-0.2,0.2-0.4,0.4-0.4,1.1c0,0.4,0,1.2,0,2.1v3.1c0,0.1,0,0.2-0.6,0.2h-0.1c-0.6,0-0.7-0.1-0.7-0.2v-5.3
			c0-1.1,0-2.2,0-2.6C197.5,315.6,197.5,315.5,198.2,315.5L198.2,315.5z"/>
		<path class="st1" d="M221.4,315.5c0.6,0,0.6,0,0.6,0.2l0,0.7h0c0.5-0.6,1.6-1,2.6-1c0.9,0,1.6,0.3,2.1,0.8
			c0.6,0.6,0.8,1.4,0.8,2.7v4.7c0,0.1,0,0.2-0.6,0.2h-0.1c-0.6,0-0.7-0.1-0.7-0.2v-4.1c0-1.3,0-1.9-0.4-2.3
			c-0.3-0.4-0.8-0.5-1.5-0.5c-0.6,0-1.3,0.2-1.7,0.6c-0.2,0.2-0.4,0.4-0.4,1.1c0,0.4,0,1.2,0,2.1v3.1c0,0.1,0,0.2-0.6,0.2h-0.1
			c-0.6,0-0.7-0.1-0.7-0.2v-5.3c0-1.1,0-2.2,0-2.6C220.7,315.6,220.7,315.5,221.4,315.5L221.4,315.5z"/>
		<path class="st1" d="M230.8,320.2c0,0.9,0.3,1.5,0.8,1.9c0.4,0.4,1,0.6,1.8,0.6c0.7,0,1.3-0.2,2.1-0.5c0.1-0.1,0.2-0.1,0.4,0.3
			l0.1,0.2c0.2,0.4,0.2,0.5,0,0.6c-0.8,0.5-1.8,0.7-2.8,0.7c-2.5,0-3.8-1.6-3.8-4.1c0-2.6,1.4-4.5,3.8-4.5c1.4,0,2.3,0.7,2.9,1.7
			c0.4,0.7,0.5,1.6,0.5,2.5c0,0.5,0,0.6-0.2,0.6H230.8z M235.1,319c0-1.2-0.6-2.3-1.9-2.3c-1.1,0-2,0.7-2.3,2.3H235.1z"/>
		<path class="st1" d="M240.3,319.6c0.4,1.1,0.6,1.8,0.9,2.7c0.2-0.7,0.5-1.6,0.8-2.6l1.4-4c0-0.1,0.2-0.2,0.7-0.2
			c0.6,0,0.8,0,0.7,0.2l-3,8.2c-0.4,1.1-0.8,2-1.3,2.5c-0.6,0.7-1.4,1-2.3,1c-0.4,0-0.9-0.1-1.3-0.3c-0.2-0.1-0.1-0.2,0-0.5l0.1-0.2
			c0.1-0.4,0.2-0.4,0.3-0.4c0.3,0.1,0.5,0.1,0.8,0.1c1,0,1.6-0.6,2.3-2.3l-3.1-8.1c-0.1-0.2,0.1-0.2,0.7-0.2c0.6,0,0.8,0,0.8,0.2
			L240.3,319.6z"/>
		<g>
			<path class="st1" d="M218.8,319.7c0,0.6-0.1,1.1-0.2,1.6c-0.2,0.5-0.4,1-0.7,1.4c-0.3,0.4-0.7,0.7-1.2,0.9
				c-0.5,0.2-1,0.3-1.6,0.3c-0.6,0-1.1-0.1-1.6-0.3c-0.5-0.2-0.9-0.5-1.2-0.9c-0.3-0.4-0.6-0.8-0.7-1.4c-0.2-0.5-0.2-1.1-0.2-1.6
				c0-0.6,0.1-1.1,0.2-1.6c0.2-0.5,0.4-1,0.7-1.4c0.3-0.4,0.7-0.7,1.2-0.9c0.5-0.2,1-0.3,1.6-0.3c0.6,0,1.1,0.1,1.6,0.3
				c0.5,0.2,0.9,0.5,1.2,0.9c0.3,0.4,0.6,0.8,0.7,1.4C218.7,318.5,218.8,319.1,218.8,319.7z M217.4,319.7c0-0.4,0-0.8-0.1-1.2
				c-0.1-0.4-0.2-0.7-0.4-1c-0.2-0.3-0.4-0.5-0.7-0.7c-0.3-0.2-0.6-0.2-1-0.2c-0.4,0-0.7,0.1-1,0.2c-0.3,0.2-0.5,0.4-0.7,0.7
				c-0.2,0.3-0.3,0.6-0.4,1c-0.1,0.4-0.1,0.8-0.1,1.2c0,0.4,0,0.8,0.1,1.2c0.1,0.4,0.2,0.7,0.4,1c0.2,0.3,0.4,0.5,0.7,0.7
				c0.3,0.2,0.6,0.2,1,0.2c0.4,0,0.7-0.1,1-0.2c0.3-0.2,0.5-0.4,0.7-0.7c0.2-0.3,0.3-0.6,0.4-1C217.3,320.5,217.4,320.1,217.4,319.7
				z"/>
		</g>
	</g>
</g>
</svg>
